<svg width="1312" height="441" viewBox="0 0 1312 441" fill="none" xmlns="http://www.w3.org/2000/svg">
<g clip-path="url(#clip0_527_482)">
<rect width="1312" height="441" rx="8" fill="white"/>
<mask id="mask0_527_482" style="mask-type:alpha" maskUnits="userSpaceOnUse" x="0" y="0" width="1312" height="441">
<rect width="1312" height="441" rx="8" fill="#CEDFFD"/>
</mask>
<g mask="url(#mask0_527_482)">
<path d="M356.749 1046.58L335.214 1049.72C136.616 1078.43 -47.6256 940.702 -76.3385 742.104L-249.214 -453.522C-277.927 -652.12 -140.195 -836.361 58.403 -865.074L79.9377 -868.214C278.536 -896.927 462.777 -759.195 491.49 -560.597L664.366 635.178C693.079 833.626 555.346 1017.87 356.749 1046.58Z" fill="#DBDBDB"/>
<path d="M1354.66 336.83L465.311 995.433C326.232 1098.47 129.877 1069.16 26.8399 930.081L18.1662 918.267C-84.8714 779.189 -55.5603 582.834 83.5181 479.797L972.872 -178.807C1111.95 -281.844 1308.3 -252.533 1411.34 -113.455L1420.02 -101.641C1523.05 37.4378 1493.89 233.793 1354.66 336.83Z" fill="#DBDBDB"/>
<path d="M664.282 634.663L587.864 106.015L83.5923 479.433C-55.4861 582.471 -84.7972 778.676 18.2404 917.904L26.9141 929.718C56.973 970.395 95.257 1001.35 137.579 1022.74C197.696 1049.06 265.591 1059.67 335.279 1049.51L356.814 1046.36C357.562 1046.22 358.309 1046.07 359.207 1045.92C396.444 1036.05 432.485 1019.3 465.385 995.07L604.613 891.883C654.262 819.203 677.891 728.578 664.282 634.663Z" fill="#D1D1D1"/>
</g>
</g>
<defs>
<clipPath id="clip0_527_482">
<rect width="1312" height="441" fill="white"/>
</clipPath>
</defs>
</svg>
