<svg width="1312" height="441" viewBox="0 0 1312 441" fill="none" xmlns="http://www.w3.org/2000/svg">
<g clip-path="url(#clip0_640_2031)">
<rect width="1312" height="441" rx="8" fill="white"/>
<mask id="mask0_640_2031" style="mask-type:alpha" maskUnits="userSpaceOnUse" x="0" y="0" width="1312" height="441">
<rect width="1312" height="441" rx="8" fill="#CEDFFD"/>
</mask>
<g mask="url(#mask0_640_2031)">
<path d="M356.749 1046.58L335.214 1049.72C136.616 1078.43 -47.6256 940.702 -76.3385 742.104L-249.214 -453.522C-277.927 -652.12 -140.195 -836.361 58.403 -865.074L79.9377 -868.214C278.536 -896.927 462.777 -759.195 491.49 -560.597L664.366 635.178C693.079 833.626 555.346 1017.87 356.749 1046.58Z" fill="#ECECEC"/>
<path d="M1354.67 336.83L465.312 995.433C326.234 1098.47 129.879 1069.16 26.8418 930.081L18.1681 918.267C-84.8695 779.189 -55.5583 582.834 83.52 479.797L972.874 -178.807C1111.95 -281.844 1308.31 -252.533 1411.34 -113.455L1420.02 -101.641C1523.06 37.4378 1493.89 233.793 1354.67 336.83Z" fill="#ECECEC"/>
<path d="M664.28 634.663L587.862 106.015L83.5904 479.433C-55.488 582.471 -84.7992 778.676 18.2385 917.904L26.9122 929.718C56.971 970.395 95.255 1001.35 137.577 1022.74C197.694 1049.06 265.589 1059.67 335.277 1049.51L356.812 1046.36C357.56 1046.22 358.307 1046.07 359.205 1045.92C396.442 1036.05 432.483 1019.3 465.383 995.07L604.611 891.883C654.26 819.203 677.889 728.578 664.28 634.663Z" fill="#E7E7E7"/>
</g>
</g>
<defs>
<clipPath id="clip0_640_2031">
<rect width="1312" height="441" fill="white"/>
</clipPath>
</defs>
</svg>
