<svg width="119" height="40" viewBox="0 0 119 40" fill="none" xmlns="http://www.w3.org/2000/svg">
<path d="M8.23768 35.8592L7.94674 35.9016C5.26369 36.2895 2.7746 34.4287 2.38669 31.7457L0.051143 15.5928C-0.336768 12.9098 1.52399 10.4207 4.20704 10.0328L4.49797 9.99035C7.18102 9.60244 9.67012 11.4632 10.058 14.1463L12.3936 30.3011C12.7815 32.9821 10.9207 35.4712 8.23768 35.8592Z" fill="#418CFD"/>
<path d="M21.7196 26.2705L9.70445 35.1682C7.82551 36.5602 5.17276 36.1642 3.78073 34.2853L3.66355 34.1257C2.27152 32.2467 2.66751 29.594 4.54645 28.2019L16.5616 19.3042C18.4405 17.9122 21.0933 18.3082 22.4853 20.1871L22.6025 20.3467C23.9945 22.2257 23.6005 24.8784 21.7196 26.2705Z" fill="#80B2FE"/>
<path d="M12.392 30.3421L11.3596 23.2001L4.54694 28.2449C2.668 29.637 2.272 32.2877 3.66404 34.1687L3.78122 34.3283C4.18731 34.8778 4.70453 35.296 5.27629 35.5849C6.08848 35.9405 7.00573 36.084 7.94722 35.9466L8.23815 35.9042C8.24825 35.9021 8.25836 35.9001 8.27048 35.8981C8.77355 35.7647 9.26046 35.5385 9.70494 35.2112L11.5859 33.8171C12.2567 32.8352 12.5759 31.6109 12.392 30.3421Z" fill="#619FFD"/>
<path d="M15.8108 10.5096C17.6084 10.5096 19.0656 9.0524 19.0656 7.25481C19.0656 5.45723 17.6084 4 15.8108 4C14.0132 4 12.556 5.45723 12.556 7.25481C12.556 9.0524 14.0132 10.5096 15.8108 10.5096Z" fill="#A0C5FE"/>
<path d="M50.6028 29.472C50.9655 29.472 51.2748 29.6 51.5308 29.856C51.7868 30.0907 51.9148 30.3893 51.9148 30.752C51.9148 31.1147 51.7868 31.4133 51.5308 31.648C51.2748 31.8827 50.9655 32 50.6028 32H39.5308C39.1681 32 38.8588 31.872 38.6028 31.616C38.3681 31.36 38.2508 31.0507 38.2508 30.688V10.88C38.2508 10.5173 38.3788 10.2187 38.6348 9.984C38.8908 9.728 39.2108 9.6 39.5948 9.6C39.9575 9.6 40.2668 9.728 40.5228 9.984C40.7788 10.2187 40.9068 10.5173 40.9068 10.88V30.048L40.2668 29.472H50.6028ZM70.8586 23.68C70.8586 25.344 70.4852 26.8267 69.7386 28.128C69.0132 29.4293 68.0212 30.4533 66.7626 31.2C65.5252 31.9467 64.1279 32.32 62.5706 32.32C61.0132 32.32 59.6052 31.9467 58.3466 31.2C57.0879 30.4533 56.0852 29.4293 55.3386 28.128C54.6132 26.8267 54.2506 25.344 54.2506 23.68C54.2506 22.016 54.6132 20.5333 55.3386 19.232C56.0852 17.9307 57.0879 16.9067 58.3466 16.16C59.6052 15.4133 61.0132 15.04 62.5706 15.04C64.1279 15.04 65.5252 15.4133 66.7626 16.16C68.0212 16.9067 69.0132 17.9307 69.7386 19.232C70.4852 20.5333 70.8586 22.016 70.8586 23.68ZM68.2986 23.68C68.2986 22.4427 68.0426 21.3547 67.5306 20.416C67.0399 19.4773 66.3572 18.7413 65.4826 18.208C64.6292 17.6747 63.6586 17.408 62.5706 17.408C61.4826 17.408 60.5012 17.6747 59.6266 18.208C58.7732 18.7413 58.0906 19.4773 57.5786 20.416C57.0666 21.3547 56.8106 22.4427 56.8106 23.68C56.8106 24.896 57.0666 25.9733 57.5786 26.912C58.0906 27.8507 58.7732 28.5973 59.6266 29.152C60.5012 29.6853 61.4826 29.952 62.5706 29.952C63.6586 29.952 64.6292 29.6853 65.4826 29.152C66.3572 28.5973 67.0399 27.8507 67.5306 26.912C68.0426 25.9733 68.2986 24.896 68.2986 23.68ZM87.0931 15.2C87.4557 15.2 87.7544 15.328 87.9891 15.584C88.2451 15.8187 88.3731 16.1173 88.3731 16.48V30.432C88.3731 32.224 88.0211 33.7067 87.3171 34.88C86.6131 36.0747 85.6637 36.96 84.4691 37.536C83.2957 38.112 81.9624 38.4 80.4691 38.4C79.6371 38.4 78.8371 38.3147 78.0691 38.144C77.3011 37.9733 76.6717 37.7493 76.1811 37.472C75.7757 37.28 75.4877 37.0347 75.3171 36.736C75.1677 36.4587 75.1464 36.16 75.2531 35.84C75.4024 35.456 75.6157 35.1893 75.8931 35.04C76.1917 34.8907 76.5011 34.8907 76.8211 35.04C77.1624 35.1893 77.6531 35.392 78.2931 35.648C78.9544 35.9253 79.6904 36.064 80.5011 36.064C81.6104 36.064 82.5597 35.8507 83.3491 35.424C84.1384 34.9973 84.7464 34.368 85.1731 33.536C85.5997 32.7253 85.8131 31.712 85.8131 30.496V28.224L86.1971 29.024C85.8557 29.6853 85.3971 30.2613 84.8211 30.752C84.2451 31.2427 83.5837 31.6267 82.8371 31.904C82.0904 32.1813 81.2691 32.32 80.3731 32.32C79.1571 32.32 78.1224 32.064 77.2691 31.552C76.4371 31.0187 75.7971 30.2933 75.3491 29.376C74.9224 28.4373 74.7091 27.36 74.7091 26.144V16.48C74.7091 16.1173 74.8264 15.8187 75.0611 15.584C75.3171 15.328 75.6264 15.2 75.9891 15.2C76.3731 15.2 76.6824 15.328 76.9171 15.584C77.1517 15.8187 77.2691 16.1173 77.2691 16.48V25.568C77.2691 27.0187 77.5891 28.1173 78.2291 28.864C78.8691 29.5893 79.8611 29.952 81.2051 29.952C82.0584 29.952 82.8264 29.76 83.5091 29.376C84.2131 28.992 84.7677 28.4693 85.1731 27.808C85.5997 27.1253 85.8131 26.3787 85.8131 25.568V16.48C85.8131 16.1173 85.9304 15.8187 86.1651 15.584C86.3997 15.328 86.7091 15.2 87.0931 15.2ZM106.747 15.296C107.11 15.296 107.409 15.424 107.643 15.68C107.899 15.9147 108.027 16.2133 108.027 16.576V30.688C108.027 31.0507 107.899 31.36 107.643 31.616C107.409 31.872 107.11 32 106.747 32C106.363 32 106.054 31.872 105.819 31.616C105.585 31.36 105.467 31.0507 105.467 30.688V27.648L106.075 27.584C106.075 28.0533 105.915 28.5653 105.595 29.12C105.275 29.6747 104.838 30.1973 104.283 30.688C103.729 31.1573 103.067 31.552 102.299 31.872C101.553 32.1707 100.742 32.32 99.8673 32.32C98.4166 32.32 97.1153 31.9467 95.9633 31.2C94.8113 30.432 93.894 29.3973 93.2113 28.096C92.55 26.7947 92.2193 25.312 92.2193 23.648C92.2193 21.9627 92.55 20.48 93.2113 19.2C93.894 17.8987 94.8113 16.8853 95.9633 16.16C97.1153 15.4133 98.3953 15.04 99.8033 15.04C100.721 15.04 101.574 15.1893 102.363 15.488C103.153 15.7867 103.835 16.192 104.411 16.704C105.009 17.216 105.467 17.7813 105.787 18.4C106.129 19.0187 106.299 19.6373 106.299 20.256L105.467 20.064V16.576C105.467 16.2133 105.585 15.9147 105.819 15.68C106.054 15.424 106.363 15.296 106.747 15.296ZM100.155 29.952C101.222 29.952 102.161 29.6747 102.971 29.12C103.803 28.5653 104.443 27.8187 104.891 26.88C105.361 25.92 105.595 24.8427 105.595 23.648C105.595 22.4747 105.361 21.4187 104.891 20.48C104.443 19.52 103.803 18.7733 102.971 18.24C102.161 17.6853 101.222 17.408 100.155 17.408C99.11 17.408 98.1713 17.6747 97.3393 18.208C96.5286 18.7413 95.8886 19.4773 95.4193 20.416C94.95 21.3547 94.7153 22.432 94.7153 23.648C94.7153 24.8427 94.9393 25.92 95.3873 26.88C95.8566 27.8187 96.4966 28.5653 97.3073 29.12C98.1393 29.6747 99.0886 29.952 100.155 29.952ZM115.588 30.688C115.588 31.0507 115.46 31.36 115.204 31.616C114.948 31.872 114.638 32 114.276 32C113.913 32 113.614 31.872 113.38 31.616C113.145 31.36 113.028 31.0507 113.028 30.688V9.6C113.028 9.23733 113.145 8.93867 113.38 8.704C113.636 8.448 113.945 8.32 114.308 8.32C114.692 8.32 115.001 8.448 115.236 8.704C115.47 8.93867 115.588 9.23733 115.588 9.6V30.688Z" fill="#418CFD"/>
</svg>
