<svg width="48" height="48" viewBox="0 0 48 48" fill="none" xmlns="http://www.w3.org/2000/svg">
<g clip-path="url(#clip0_625_570)">
<circle cx="24" cy="24" r="24" fill="url(#paint0_linear_625_570)"/>
<path fill-rule="evenodd" clip-rule="evenodd" d="M27.3516 18.8571C27.3516 18.4514 27.6805 18.1224 28.0862 18.1224H33.5544C33.9602 18.1224 34.2891 18.4514 34.2891 18.8571V24.2897C34.2891 24.6955 33.9602 25.0244 33.5544 25.0244C33.1487 25.0244 32.8197 24.6955 32.8197 24.2897V19.5918H28.0862C27.6805 19.5918 27.3516 19.2629 27.3516 18.8571Z" fill="#07BEB8"/>
<path opacity="0.5" d="M31.7773 19.5918L25.806 25.5209C25.3027 26.0212 24.9764 26.3433 24.7047 26.5495C24.4499 26.7427 24.3308 26.7643 24.252 26.7643C24.1731 26.7643 24.054 26.7427 23.7993 26.5494C23.5276 26.3432 23.2014 26.021 22.6982 25.5206L22.4295 25.2534C21.9698 24.7963 21.5736 24.4023 21.2138 24.1292C20.8282 23.8365 20.3996 23.6151 19.872 23.6153C19.3444 23.6155 18.916 23.8372 18.5305 24.1302C18.1709 24.4035 17.775 24.7978 17.3157 25.2553L13.4428 29.1119C13.1553 29.3982 13.1543 29.8634 13.4407 30.1509C13.727 30.4385 14.1921 30.4394 14.4797 30.1531L18.3183 26.3305C18.8216 25.8293 19.1479 25.5066 19.4197 25.3C19.6745 25.1064 19.7936 25.0847 19.8725 25.0847C19.9515 25.0847 20.0706 25.1062 20.3256 25.2997C20.5975 25.506 20.924 25.8286 21.4277 26.3294L21.6963 26.5965C22.1556 27.0532 22.5514 27.4469 22.911 27.7198C23.2963 28.0123 23.7246 28.2336 24.2518 28.2337C24.779 28.2337 25.2073 28.0125 25.5927 27.7201C25.9523 27.4473 26.3483 27.0537 26.8077 26.5971L32.8183 20.6288V19.5918H31.7773Z" fill="#07BEB8"/>
</g>
<defs>
<linearGradient id="paint0_linear_625_570" x1="24.4898" y1="-38.2041" x2="24.4898" y2="101.388" gradientUnits="userSpaceOnUse">
<stop stop-color="#99E4E2"/>
<stop offset="1" stop-color="#99E4E2" stop-opacity="0"/>
</linearGradient>
<clipPath id="clip0_625_570">
<rect width="48" height="48" fill="white"/>
</clipPath>
</defs>
</svg>
