<svg width="48" height="48" viewBox="0 0 48 48" fill="none" xmlns="http://www.w3.org/2000/svg">
<g clip-path="url(#clip0_468_427)">
<circle cx="24" cy="24" r="24" fill="url(#paint0_linear_468_427)"/>
<path opacity="0.5" fill-rule="evenodd" clip-rule="evenodd" d="M24.4986 22.2855C23.8223 22.2855 23.2741 22.8337 23.2741 23.51C23.2741 24.1863 23.8223 24.7345 24.4986 24.7345C25.1748 24.7345 25.7231 24.1863 25.7231 23.51C25.7231 22.8337 25.1748 22.2855 24.4986 22.2855ZM21.8047 23.51C21.8047 22.0222 23.0108 20.8161 24.4986 20.8161C25.9864 20.8161 27.1924 22.0222 27.1924 23.51C27.1924 24.9978 25.9864 26.2039 24.4986 26.2039C23.0108 26.2039 21.8047 24.9978 21.8047 23.51Z" fill="#07BEB8"/>
<path d="M22.3661 25.1538L17.491 33.9288C17.294 34.2835 17.4218 34.7308 17.7765 34.9279C18.1312 35.1249 18.5784 34.9971 18.7755 34.6424L23.5578 26.0343C23.0824 25.8567 22.6707 25.5487 22.3661 25.1538Z" fill="#07BEB8"/>
<path d="M25.4434 26.0342L30.2257 34.6424C30.4228 34.9971 30.8701 35.1249 31.2248 34.9279C31.5795 34.7308 31.7073 34.2835 31.5102 33.9288L26.635 25.1536C26.3305 25.5485 25.9187 25.8566 25.4434 26.0342Z" fill="#07BEB8"/>
<path d="M24.4987 17.8774C23.5519 17.8774 22.7844 17.1099 22.7844 16.1631C22.7844 15.2163 23.5519 14.4488 24.4987 14.4488C25.4455 14.4488 26.213 15.2163 26.213 16.1631C26.213 17.1099 25.4455 17.8774 24.4987 17.8774Z" fill="#07BEB8"/>
<path d="M15.4375 20.0814C15.4375 19.1347 16.205 18.3672 17.1518 18.3672C18.0986 18.3672 18.8661 19.1347 18.8661 20.0814C18.8661 21.0282 18.0986 21.7957 17.1518 21.7957C16.205 21.7957 15.4375 21.0282 15.4375 20.0814Z" fill="#07BEB8"/>
<path d="M31.8457 18.3672C30.8989 18.3672 30.1314 19.1347 30.1314 20.0814C30.1314 21.0282 30.8989 21.7957 31.8457 21.7957C32.7924 21.7957 33.5599 21.0282 33.5599 20.0814C33.5599 19.1347 32.7924 18.3672 31.8457 18.3672Z" fill="#07BEB8"/>
<path d="M31.8457 26.6937C30.8989 26.6937 30.1314 27.4612 30.1314 28.408C30.1314 29.3547 30.8989 30.1223 31.8457 30.1223C32.7924 30.1223 33.5599 29.3547 33.5599 28.408C33.5599 27.4612 32.7924 26.6937 31.8457 26.6937Z" fill="#07BEB8"/>
<path d="M17.1518 26.6937C16.205 26.6937 15.4375 27.4612 15.4375 28.408C15.4375 29.3547 16.205 30.1223 17.1518 30.1223C18.0986 30.1223 18.8661 29.3547 18.8661 28.408C18.8661 27.4612 18.0986 26.6937 17.1518 26.6937Z" fill="#07BEB8"/>
<path d="M22.7844 31.8365C22.7844 32.7833 23.5519 33.5508 24.4987 33.5508C25.4455 33.5508 26.213 32.7833 26.213 31.8365C26.213 30.8898 25.4455 30.1223 24.4987 30.1223C23.5519 30.1223 22.7844 30.8898 22.7844 31.8365Z" fill="#07BEB8"/>
<path opacity="0.5" fill-rule="evenodd" clip-rule="evenodd" d="M23.16 17.2379C22.9231 16.9439 22.7812 16.5701 22.7812 16.1631C22.7812 16.0187 22.7991 15.8786 22.8327 15.7446C22.8004 15.761 22.7682 15.778 22.7363 15.7954L18.0399 18.3562C17.959 18.4003 17.8802 18.4472 17.8036 18.4967C18.285 18.6959 18.656 19.1082 18.7989 19.6159L23.16 17.2379ZM17.5944 21.7372C17.4522 21.7754 17.3028 21.7957 17.1486 21.7957C16.7658 21.7957 16.4124 21.6703 16.1271 21.4583C16.1257 21.4992 16.125 21.5402 16.125 21.5814V26.4182C16.125 26.6148 16.1407 26.809 16.1712 26.9994C16.4484 26.8067 16.7853 26.6937 17.1486 26.6937C17.3124 26.6937 17.4709 26.7167 17.6209 26.7596C17.6034 26.6477 17.5944 26.5336 17.5944 26.4182V21.7372ZM18.8629 28.4185C18.8596 28.954 18.6109 29.4313 18.2235 29.7435L22.7363 32.2042C22.7682 32.2216 22.8003 32.2386 22.8327 32.255C22.7991 32.121 22.7812 31.9809 22.7812 31.8365C22.7812 31.4295 22.9231 31.0557 23.16 30.7617L18.8629 28.4185ZM25.8306 30.7611C26.0678 31.0552 26.2098 31.4293 26.2098 31.8365C26.2098 31.9806 26.1921 32.1205 26.1586 32.2542C26.1904 32.238 26.222 32.2214 26.2535 32.2042L30.7671 29.7431C30.3798 29.4307 30.1312 28.9533 30.1282 28.4178L25.8306 30.7611ZM31.3687 26.76C31.5192 26.7168 31.6781 26.6937 31.8425 26.6937C32.2052 26.6937 32.5416 26.8064 32.8187 26.9986C32.8491 26.8084 32.8647 26.6145 32.8647 26.4182V21.5814C32.8647 21.5405 32.864 21.4998 32.8627 21.4592C32.5776 21.6707 32.2247 21.7957 31.8425 21.7957C31.6878 21.7957 31.5379 21.7752 31.3953 21.7368V26.4182C31.3953 26.5338 31.3863 26.648 31.3687 26.76ZM30.192 19.6166C30.3347 19.1088 30.7054 18.6965 31.1867 18.4971C31.1099 18.4474 31.0309 18.4004 30.9498 18.3562L26.2535 15.7954C26.222 15.7782 26.1904 15.7616 26.1586 15.7454C26.192 15.8791 26.2098 16.019 26.2098 16.1631C26.2098 16.5703 26.0678 16.9444 25.8306 17.2385L30.192 19.6166Z" fill="#07BEB8"/>
</g>
<defs>
<linearGradient id="paint0_linear_468_427" x1="24.4898" y1="-38.2041" x2="24.4898" y2="101.388" gradientUnits="userSpaceOnUse">
<stop stop-color="#99E4E2"/>
<stop offset="1" stop-color="#99E4E2" stop-opacity="0"/>
</linearGradient>
<clipPath id="clip0_468_427">
<rect width="48" height="48" fill="white"/>
</clipPath>
</defs>
</svg>
