<svg width="48" height="48" viewBox="0 0 48 48" fill="none" xmlns="http://www.w3.org/2000/svg">
<g clip-path="url(#clip0_625_584)">
<circle cx="24" cy="24" r="24" fill="url(#paint0_linear_625_584)"/>
<circle cx="24" cy="24" r="24" fill="url(#paint1_linear_625_584)"/>
<path d="M21.0605 23.2305C21.0605 22.3288 21.8002 21.5978 22.7128 21.5978C23.6253 21.5978 24.3651 22.3288 24.3651 23.2305C24.3651 24.1322 23.6253 24.8631 22.7128 24.8631C21.8002 24.8631 21.0605 24.1322 21.0605 23.2305Z" fill="#6A994E"/>
<path fill-rule="evenodd" clip-rule="evenodd" d="M14.6875 23.2304C14.6875 20.5916 14.6875 19.2722 15.5171 18.4525C16.3467 17.6327 17.682 17.6327 20.3525 17.6327H25.0734C27.7439 17.6327 29.0791 17.6327 29.9087 18.4525C30.7384 19.2722 30.7384 20.5916 30.7384 23.2304C30.7384 25.8692 30.7384 27.1886 29.9087 28.0084C29.0791 28.8281 27.7439 28.8281 25.0734 28.8281H20.3525C17.682 28.8281 16.3467 28.8281 15.5171 28.0084C14.6875 27.1886 14.6875 25.8692 14.6875 23.2304ZM19.6442 23.2305C19.6442 21.5559 21.018 20.1984 22.7128 20.1984C24.4075 20.1984 25.7813 21.5559 25.7813 23.2305C25.7813 24.9051 24.4075 26.2626 22.7128 26.2626C21.018 26.2626 19.6442 24.9051 19.6442 23.2305ZM16.8117 25.0964C16.8117 25.4828 17.1287 25.7961 17.5198 25.7961C17.9109 25.7961 18.228 25.4828 18.228 25.0964L18.228 21.3646C18.228 20.9781 17.9109 20.6649 17.5198 20.6649C17.1287 20.6649 16.8117 20.9781 16.8117 21.3646L16.8117 25.0964ZM27.9057 25.7961C27.5146 25.7961 27.1976 25.4828 27.1976 25.0964V21.3646C27.1976 20.9781 27.5146 20.6649 27.9057 20.6649C28.2968 20.6649 28.6138 20.9781 28.6138 21.3646V25.0964C28.6138 25.4828 28.2968 25.7961 27.9057 25.7961Z" fill="#6A994E"/>
<path opacity="0.5" d="M16.7109 28.6287C16.7237 28.7766 16.7391 28.9182 16.7575 29.0536C16.8717 29.8934 17.1162 30.6005 17.6845 31.162C17.7654 31.242 17.8493 31.3154 17.9361 31.383C18.49 31.8864 19.1761 32.1098 19.9834 32.217C20.802 32.3258 21.8427 32.3258 23.134 32.3257H27.9584C29.2497 32.3258 30.2905 32.3258 31.109 32.217C31.9589 32.1041 32.6744 31.8626 33.2427 31.301C33.8111 30.7395 34.0555 30.0324 34.1698 29.1926C34.2798 28.3838 34.2798 27.3554 34.2798 26.0795V25.9771C34.2798 24.7012 34.2798 23.6728 34.1698 22.864C34.0555 22.0242 33.8111 21.3171 33.2427 20.7556C33.1618 20.6756 33.0779 20.6022 32.9911 20.5346C32.4373 20.0312 31.7511 19.8078 30.9438 19.7006C30.8157 19.6836 30.6821 19.6692 30.543 19.6571C30.7387 20.4735 30.7387 21.6002 30.7387 23.2304C30.7387 25.8692 30.7387 27.1886 29.909 28.0084C29.0794 28.8281 27.7442 28.8281 25.0736 28.8281H20.3528C18.6858 28.8281 17.5391 28.8281 16.7109 28.6287Z" fill="#6A994E"/>
</g>
<defs>
<linearGradient id="paint0_linear_625_584" x1="24.4898" y1="-38.2041" x2="24.4898" y2="101.388" gradientUnits="userSpaceOnUse">
<stop stop-color="#C2D5B6"/>
<stop offset="1" stop-color="#C2D5B6" stop-opacity="0"/>
</linearGradient>
<linearGradient id="paint1_linear_625_584" x1="24.4898" y1="-38.2041" x2="24.4898" y2="101.388" gradientUnits="userSpaceOnUse">
<stop stop-color="#C2D5B6"/>
<stop offset="1" stop-color="#C2D5B6" stop-opacity="0"/>
</linearGradient>
<clipPath id="clip0_625_584">
<rect width="48" height="48" fill="white"/>
</clipPath>
</defs>
</svg>
