<svg width="48" height="48" viewBox="0 0 48 48" fill="none" xmlns="http://www.w3.org/2000/svg">
<g clip-path="url(#clip0_625_571)">
<circle cx="24" cy="24" r="24" fill="url(#paint0_linear_625_571)"/>
<path opacity="0.5" d="M26.6337 15.6735H22.3235C18.2598 15.6735 16.228 15.6735 14.9656 16.9646C13.7031 18.2557 13.7031 20.3337 13.7031 24.4898C13.7031 28.6458 13.7031 30.7239 14.9656 32.015C16.228 33.3061 18.2598 33.3061 22.3235 33.3061H26.6337C30.6974 33.3061 32.7293 33.3061 33.9917 32.015C35.2541 30.7239 35.2541 28.6458 35.2541 24.4898C35.2541 20.3337 35.2541 18.2557 33.9917 16.9646C32.7293 15.6735 30.6974 15.6735 26.6337 15.6735Z" fill="#F29634"/>
<path d="M31.4671 20.6047C31.81 20.319 31.8563 19.8094 31.5706 19.4665C31.2848 19.1236 30.7752 19.0773 30.4324 19.363L28.106 21.3016C27.1007 22.1394 26.4028 22.7191 25.8135 23.0981C25.2431 23.465 24.8563 23.5881 24.4844 23.5881C24.1126 23.5881 23.7258 23.465 23.1554 23.0981C22.5661 22.7191 21.8681 22.1394 20.8628 21.3016L18.5365 19.363C18.1936 19.0773 17.684 19.1236 17.3983 19.4665C17.1125 19.8094 17.1589 20.319 17.5017 20.6047L19.8686 22.5771C20.8237 23.373 21.5978 24.0181 22.281 24.4575C22.9927 24.9153 23.6859 25.2044 24.4844 25.2044C25.283 25.2044 25.9761 24.9153 26.6878 24.4575C27.3711 24.0181 28.1452 23.373 29.1003 22.577L31.4671 20.6047Z" fill="#F29634"/>
</g>
<defs>
<linearGradient id="paint0_linear_625_571" x1="24.4898" y1="-38.2041" x2="24.4898" y2="101.388" gradientUnits="userSpaceOnUse">
<stop stop-color="#FCCB96"/>
<stop offset="1" stop-color="#FCCB96" stop-opacity="0"/>
</linearGradient>
<clipPath id="clip0_625_571">
<rect width="48" height="48" fill="white"/>
</clipPath>
</defs>
</svg>
