<svg width="48" height="48" viewBox="0 0 48 48" fill="none" xmlns="http://www.w3.org/2000/svg">
<g clip-path="url(#clip0_619_790)">
<circle cx="24" cy="24" r="24" fill="url(#paint0_linear_619_790)"/>
<path opacity="0.5" fill-rule="evenodd" clip-rule="evenodd" d="M24.4829 22.2857C23.8067 22.2857 23.2585 22.834 23.2585 23.5102C23.2585 24.1865 23.8067 24.7347 24.4829 24.7347C25.1592 24.7347 25.7074 24.1865 25.7074 23.5102C25.7074 22.834 25.1592 22.2857 24.4829 22.2857ZM21.7891 23.5102C21.7891 22.0224 22.9952 20.8163 24.4829 20.8163C25.9707 20.8163 27.1768 22.0224 27.1768 23.5102C27.1768 24.998 25.9707 26.2041 24.4829 26.2041C22.9952 26.2041 21.7891 24.998 21.7891 23.5102Z" fill="#07BEB8"/>
<path d="M22.3504 25.154L17.4754 33.9291C17.2783 34.2838 17.4061 34.731 17.7608 34.9281C18.1155 35.1251 18.5628 34.9974 18.7599 34.6427L23.5422 26.0345C23.0668 25.8569 22.655 25.5489 22.3504 25.154Z" fill="#07BEB8"/>
<path d="M25.4278 26.0345L30.2101 34.6427C30.4072 34.9974 30.8544 35.1251 31.2091 34.9281C31.5638 34.731 31.6916 34.2838 31.4946 33.9291L26.6194 25.1538C26.3149 25.5487 25.9031 25.8568 25.4278 26.0345Z" fill="#07BEB8"/>
<path d="M24.4831 17.8776C23.5363 17.8776 22.7688 17.1101 22.7688 16.1633C22.7688 15.2165 23.5363 14.449 24.4831 14.449C25.4299 14.449 26.1974 15.2165 26.1974 16.1633C26.1974 17.1101 25.4299 17.8776 24.4831 17.8776Z" fill="#07BEB8"/>
<path d="M15.4219 20.0817C15.4219 19.1349 16.1894 18.3674 17.1362 18.3674C18.0829 18.3674 18.8504 19.1349 18.8504 20.0817C18.8504 21.0284 18.0829 21.7959 17.1362 21.7959C16.1894 21.7959 15.4219 21.0284 15.4219 20.0817Z" fill="#07BEB8"/>
<path d="M31.83 18.3674C30.8833 18.3674 30.1158 19.1349 30.1158 20.0817C30.1158 21.0284 30.8833 21.7959 31.83 21.7959C32.7768 21.7959 33.5443 21.0284 33.5443 20.0817C33.5443 19.1349 32.7768 18.3674 31.83 18.3674Z" fill="#07BEB8"/>
<path d="M31.83 26.6939C30.8833 26.6939 30.1158 27.4614 30.1158 28.4082C30.1158 29.355 30.8833 30.1225 31.83 30.1225C32.7768 30.1225 33.5443 29.355 33.5443 28.4082C33.5443 27.4614 32.7768 26.6939 31.83 26.6939Z" fill="#07BEB8"/>
<path d="M17.1362 26.6939C16.1894 26.6939 15.4219 27.4614 15.4219 28.4082C15.4219 29.355 16.1894 30.1225 17.1362 30.1225C18.0829 30.1225 18.8504 29.355 18.8504 28.4082C18.8504 27.4614 18.0829 26.6939 17.1362 26.6939Z" fill="#07BEB8"/>
<path d="M22.7688 31.8368C22.7688 32.7835 23.5363 33.551 24.4831 33.551C25.4299 33.551 26.1974 32.7835 26.1974 31.8368C26.1974 30.89 25.4299 30.1225 24.4831 30.1225C23.5363 30.1225 22.7688 30.89 22.7688 31.8368Z" fill="#07BEB8"/>
<path opacity="0.5" fill-rule="evenodd" clip-rule="evenodd" d="M23.1444 17.2382C22.9075 16.9441 22.7656 16.5703 22.7656 16.1633C22.7656 16.0189 22.7835 15.8788 22.8171 15.7448C22.7847 15.7613 22.7526 15.7782 22.7206 15.7956L18.0242 18.3564C17.9433 18.4005 17.8646 18.4474 17.7879 18.4969C18.2694 18.6962 18.6404 19.1084 18.7833 19.6162L23.1444 17.2382ZM17.5788 21.7374C17.4366 21.7756 17.2872 21.7959 17.133 21.7959C16.7502 21.7959 16.3967 21.6705 16.1114 21.4585C16.1101 21.4994 16.1094 21.5404 16.1094 21.5816V26.4184C16.1094 26.615 16.1251 26.8092 16.1556 26.9997C16.4328 26.8069 16.7697 26.6939 17.133 26.6939C17.2968 26.6939 17.4553 26.7169 17.6053 26.7598C17.5878 26.6479 17.5788 26.5338 17.5788 26.4184V21.7374ZM18.8472 28.4187C18.844 28.9542 18.5952 29.4315 18.2078 29.7437L22.7206 32.2044C22.7526 32.2219 22.7847 32.2388 22.8171 32.2552C22.7835 32.1213 22.7656 31.9811 22.7656 31.8368C22.7656 31.4298 22.9075 31.0559 23.1444 30.7619L18.8472 28.4187ZM25.815 30.7614C26.0522 31.0555 26.1942 31.4295 26.1942 31.8368C26.1942 31.9808 26.1764 32.1207 26.143 32.2544C26.1748 32.2382 26.2064 32.2216 26.2378 32.2044L30.7514 29.7433C30.3642 29.4309 30.1156 28.9535 30.1126 28.418L25.815 30.7614ZM31.3531 26.7602C31.5036 26.717 31.6625 26.6939 31.8268 26.6939C32.1896 26.6939 32.526 26.8066 32.803 26.9988C32.8334 26.8086 32.8491 26.6147 32.8491 26.4184V21.5816C32.8491 21.5408 32.8484 21.5001 32.8471 21.4595C32.562 21.6709 32.209 21.7959 31.8268 21.7959C31.6722 21.7959 31.5223 21.7755 31.3797 21.737V26.4184C31.3797 26.534 31.3707 26.6482 31.3531 26.7602ZM30.1763 19.6168C30.3191 19.109 30.6898 18.6967 31.171 18.4973C31.0943 18.4476 31.0153 18.4006 30.9342 18.3564L26.2378 15.7956C26.2064 15.7784 26.1748 15.7618 26.143 15.7456C26.1764 15.8793 26.1942 16.0192 26.1942 16.1633C26.1942 16.5705 26.0522 16.9446 25.815 17.2387L30.1763 19.6168Z" fill="#07BEB8"/>
</g>
<defs>
<linearGradient id="paint0_linear_619_790" x1="24.4898" y1="-38.2041" x2="24.4898" y2="101.388" gradientUnits="userSpaceOnUse">
<stop stop-color="#99E4E2"/>
<stop offset="1" stop-color="#99E4E2" stop-opacity="0"/>
</linearGradient>
<clipPath id="clip0_619_790">
<rect width="48" height="48" fill="white"/>
</clipPath>
</defs>
</svg>
