<svg width="44" height="44" viewBox="0 0 44 44" fill="none" xmlns="http://www.w3.org/2000/svg">
<g clip-path="url(#clip0_947_4604)">
<circle cx="22" cy="22" r="22" fill="url(#paint0_linear_947_4604)"/>
<path opacity="0.6" d="M20.6538 16.6124H24.2457L26.0062 31.1396C24.9747 31.3168 23.792 31.4287 22.4499 31.4287C21.1074 31.4287 19.9244 31.3168 18.8927 31.1395L20.6538 16.6124Z" fill="#F77F00"/>
<path opacity="0.4" d="M16.9163 16.6124L13.5427 27.7945C13.3488 28.4372 13.5441 29.128 14.1299 29.4795C15.0143 30.0101 16.5704 30.7404 18.8927 31.1395L20.6538 16.6124H16.9163Z" fill="#F77F00"/>
<path opacity="0.7" d="M30.7701 29.4795C31.3558 29.128 31.5511 28.4372 31.3572 27.7945L27.9837 16.6124H24.2458L26.0064 31.1396C28.3291 30.7406 29.8855 30.0102 30.7701 29.4795Z" fill="#F77F00"/>
<path d="M26.1393 13.4695H18.7611C17.8916 13.4695 17.4568 13.4695 17.1867 13.7325C16.9166 13.9955 16.9166 14.4188 16.9166 15.2654V16.6124H20.6541H24.246H27.9838V15.2654C27.9838 14.4188 27.9838 13.9955 27.7137 13.7325C27.4436 13.4695 27.0088 13.4695 26.1393 13.4695Z" fill="#F8952B"/>
</g>
<defs>
<linearGradient id="paint0_linear_947_4604" x1="22.449" y1="-35.0204" x2="22.449" y2="92.9388" gradientUnits="userSpaceOnUse">
<stop stop-color="#FCCB96"/>
<stop offset="1" stop-color="#FCCB96" stop-opacity="0"/>
</linearGradient>
<clipPath id="clip0_947_4604">
<rect width="44" height="44" fill="white"/>
</clipPath>
</defs>
</svg>
