<svg width="48" height="48" viewBox="0 0 48 48" fill="none" xmlns="http://www.w3.org/2000/svg">
<g clip-path="url(#clip0_625_577)">
<circle cx="24" cy="24" r="24" fill="url(#paint0_linear_625_577)"/>
<path opacity="0.5" d="M14.6875 24.4898C14.6875 19.8719 14.6875 17.563 16.1221 16.1284C17.5567 14.6938 19.8656 14.6938 24.4834 14.6938C29.1013 14.6938 31.4102 14.6938 32.8448 16.1284C34.2793 17.563 34.2793 19.8719 34.2793 24.4898C34.2793 29.1076 34.2793 31.4165 32.8448 32.8511C31.4102 34.2857 29.1013 34.2857 24.4834 34.2857C19.8656 34.2857 17.5567 34.2857 16.1221 32.8511C14.6875 31.4165 14.6875 29.1076 14.6875 24.4898Z" fill="#ED639E"/>
<path fill-rule="evenodd" clip-rule="evenodd" d="M19.501 23.7551H14.6877C14.6875 23.9933 14.6875 24.2381 14.6875 24.4898C14.6875 24.7414 14.6875 24.9863 14.6877 25.2245H22.5119C22.5275 25.2246 22.5432 25.2247 22.5589 25.2247H22.6839C22.3521 26.6287 21.0908 27.6734 19.5855 27.6734C19.1797 27.6734 18.8508 28.0024 18.8508 28.4081C18.8508 28.8139 19.1797 29.1428 19.5855 29.1428C21.4075 29.1428 22.985 28.0955 23.7487 26.5701V34.2855C23.9869 34.2857 24.2317 34.2857 24.4834 34.2857C24.7351 34.2857 24.9799 34.2857 25.2181 34.2855V26.5701C25.9818 28.0955 27.5593 29.1428 29.3814 29.1428C29.7871 29.1428 30.1161 28.8139 30.1161 28.4081C30.1161 28.0024 29.7871 27.6734 29.3814 27.6734C27.876 27.6734 26.6147 26.6287 26.283 25.2247H26.4082C26.4239 25.2247 26.4396 25.2246 26.4553 25.2245H34.2791C34.2793 24.9863 34.2793 24.7414 34.2793 24.4898C34.2793 24.2381 34.2793 23.9933 34.2791 23.7551H29.4661C29.8098 23.3257 30.0666 22.8192 30.2066 22.259C30.7339 20.15 28.8235 18.2396 26.7144 18.7668C26.1541 18.9069 25.6476 19.1638 25.2181 19.5076V14.6941C24.9799 14.6938 24.7351 14.6938 24.4834 14.6938C24.2317 14.6938 23.9869 14.6938 23.7487 14.6941V19.5074C23.3193 19.1637 22.8129 18.9069 22.2527 18.7668C20.1436 18.2396 18.2332 20.15 18.7605 22.259C18.9005 22.8192 19.1573 23.3257 19.501 23.7551ZM23.7487 23.7551H22.5217C21.415 23.7384 20.4552 22.9795 20.186 21.9027C19.9278 20.8697 20.8634 19.9341 21.8963 20.1923C22.9731 20.4615 23.7321 21.4213 23.7487 22.528V23.7551ZM26.4454 23.7551H25.2184V22.5652L25.2183 22.536C25.2314 21.426 25.9914 20.4622 27.0708 20.1923C28.1037 19.9341 29.0394 20.8697 28.7811 21.9027C28.5119 22.9795 27.5521 23.7384 26.4454 23.7551Z" fill="#ED639E"/>
</g>
<defs>
<linearGradient id="paint0_linear_625_577" x1="24.4898" y1="-38.2041" x2="24.4898" y2="101.388" gradientUnits="userSpaceOnUse">
<stop stop-color="#F8BFD7"/>
<stop offset="1" stop-color="#F8BFD7" stop-opacity="0"/>
</linearGradient>
<clipPath id="clip0_625_577">
<rect width="48" height="48" fill="white"/>
</clipPath>
</defs>
</svg>
