<svg width="48" height="48" viewBox="0 0 48 48" fill="none" xmlns="http://www.w3.org/2000/svg">
<circle cx="24" cy="24" r="24" fill="url(#paint0_linear_3_30)"/>
<path opacity="0.5" d="M14.6912 24.4895C14.6912 19.8716 14.6912 17.5627 16.1257 16.1281C17.5603 14.6935 19.8692 14.6935 24.4871 14.6935C29.1049 14.6935 31.4138 14.6935 32.8484 16.1281C34.283 17.5627 34.283 19.8716 34.283 24.4895C34.283 29.1073 34.283 31.4162 32.8484 32.8508C31.4138 34.2854 29.1049 34.2854 24.4871 34.2854C19.8692 34.2854 17.5603 34.2854 16.1257 32.8508C14.6912 31.4162 14.6912 29.1073 14.6912 24.4895Z" fill="#ED639E"/>
<path fill-rule="evenodd" clip-rule="evenodd" d="M19.5047 23.7548H14.6914C14.6912 23.993 14.6912 24.2378 14.6912 24.4895C14.6912 24.7411 14.6912 24.986 14.6914 25.2242H22.5155C22.5312 25.2243 22.5468 25.2244 22.5625 25.2244H22.6875C22.3558 26.6284 21.0944 27.6731 19.5891 27.6731C19.1834 27.6731 18.8544 28.0021 18.8544 28.4078C18.8544 28.8136 19.1834 29.1425 19.5891 29.1425C21.4112 29.1425 22.9887 28.0952 23.7524 26.5698V34.2852C23.9906 34.2854 24.2354 34.2854 24.4871 34.2854C24.7388 34.2854 24.9836 34.2854 25.2218 34.2852V26.5698C25.9855 28.0952 27.563 29.1425 29.385 29.1425C29.7908 29.1425 30.1197 28.8136 30.1197 28.4078C30.1197 28.0021 29.7908 27.6731 29.385 27.6731C27.8797 27.6731 26.6184 26.6284 26.2866 25.2244H26.4119C26.4276 25.2244 26.4433 25.2243 26.4589 25.2242H34.2828C34.283 24.986 34.283 24.7411 34.283 24.4895C34.283 24.2378 34.283 23.993 34.2828 23.7548H29.4698C29.8134 23.3254 30.0703 22.8189 30.2103 22.2587C30.7376 20.1497 28.8272 18.2393 26.7181 18.7665C26.1578 18.9066 25.6512 19.1635 25.2218 19.5073V14.6938C24.9836 14.6935 24.7388 14.6935 24.4871 14.6935C24.2354 14.6935 23.9906 14.6935 23.7524 14.6938V19.5071C23.323 19.1634 22.8165 18.9066 22.2564 18.7665C20.1473 18.2393 18.2369 20.1497 18.7641 22.2587C18.9042 22.8189 19.161 23.3254 19.5047 23.7548ZM23.7524 23.7548H22.5254C21.4187 23.7381 20.4589 22.9792 20.1897 21.9024C19.9314 20.8694 20.8671 19.9338 21.9 20.192C22.9768 20.4612 23.7357 21.421 23.7524 22.5277V23.7548ZM26.4491 23.7548H25.2221V22.5649L25.2219 22.5357C25.2351 21.4256 25.9951 20.4619 27.0745 20.192C28.1074 19.9338 29.043 20.8694 28.7848 21.9024C28.5156 22.9792 27.5558 23.7381 26.4491 23.7548Z" fill="#ED639E"/>
<defs>
<linearGradient id="paint0_linear_3_30" x1="24.4898" y1="-38.2041" x2="24.4898" y2="101.388" gradientUnits="userSpaceOnUse">
<stop stop-color="#F8BFD7"/>
<stop offset="1" stop-color="#F8BFD7" stop-opacity="0"/>
</linearGradient>
</defs>
</svg>
