<svg width="48" height="48" viewBox="0 0 48 48" fill="none" xmlns="http://www.w3.org/2000/svg">
<circle cx="24" cy="24" r="24" fill="url(#paint0_linear_383_557)"/>
<path opacity="0.5" d="M14.6953 24.4898C14.6953 19.8719 14.6953 17.563 16.1299 16.1284C17.5645 14.6938 19.8734 14.6938 24.4912 14.6938C29.1091 14.6938 31.418 14.6938 32.8526 16.1284C34.2871 17.563 34.2871 19.8719 34.2871 24.4898C34.2871 29.1076 34.2871 31.4165 32.8526 32.8511C31.418 34.2857 29.1091 34.2857 24.4912 34.2857C19.8734 34.2857 17.5645 34.2857 16.1299 32.8511C14.6953 31.4165 14.6953 29.1076 14.6953 24.4898Z" fill="#6A994E"/>
<path d="M26.941 23.2653C26.5352 23.2653 26.2063 22.9363 26.2063 22.5306C26.2063 22.1248 26.5352 21.7959 26.941 21.7959H29.39C29.7957 21.7959 30.1247 22.1248 30.1247 22.5306V24.9795C30.1247 25.3853 29.7957 25.7142 29.39 25.7142C28.9842 25.7142 28.6553 25.3853 28.6553 24.9795V24.3043L26.6838 26.2758C26.0143 26.9452 24.9289 26.9452 24.2594 26.2758L22.706 24.7223C22.6104 24.6267 22.4553 24.6267 22.3597 24.7223L20.1136 26.9684C19.8267 27.2554 19.3615 27.2554 19.0746 26.9684C18.7876 26.6815 18.7876 26.2163 19.0746 25.9294L21.3207 23.6833C21.9901 23.0139 23.0756 23.0139 23.745 23.6833L25.2985 25.2367C25.3941 25.3324 25.5492 25.3324 25.6448 25.2367L27.6163 23.2653H26.941Z" fill="#6A994E"/>
<defs>
<linearGradient id="paint0_linear_383_557" x1="24.4898" y1="-38.2041" x2="24.4898" y2="101.388" gradientUnits="userSpaceOnUse">
<stop stop-color="#C2D5B6"/>
<stop offset="1" stop-color="#C2D5B6" stop-opacity="0"/>
</linearGradient>
</defs>
</svg>
