<svg width="48" height="48" viewBox="0 0 48 48" fill="none" xmlns="http://www.w3.org/2000/svg">
<circle cx="24" cy="24" r="24" fill="url(#paint0_linear_383_571)"/>
<path opacity="0.5" d="M24.4912 14.6926C19.0811 14.6926 14.6953 19.0784 14.6953 24.4885C14.6953 24.8352 14.7133 25.1777 14.7485 25.5151C15.0902 25.8132 17.014 27.4273 18.6137 27.4273C19.8009 27.4273 21.1668 26.5382 21.9318 25.9579L21.9406 25.9491C21.6936 25.5189 21.5525 25.0202 21.5525 24.4885C21.5525 22.8655 22.8682 21.5497 24.4912 21.5497C26.1143 21.5497 27.43 22.8655 27.43 24.4885C27.43 25.3555 27.0545 26.1349 26.4573 26.6728C26.9181 27.0771 27.5192 27.4273 28.2189 27.4273C29.8739 27.4273 29.8739 25.4681 31.5289 25.4681C32.5844 25.4681 33.4155 26.2651 33.8791 26.8424L33.9696 26.972C34.1768 26.1789 34.2871 25.3466 34.2871 24.4885C34.2871 19.0784 29.9014 14.6926 24.4912 14.6926Z" fill="#557D73"/>
<path d="M21.9333 25.9579C21.1683 26.5382 19.8025 27.4273 18.6152 27.4273C17.0155 27.4273 15.0917 25.8132 14.75 25.5151C15.2632 30.4428 19.4293 34.2844 24.4928 34.2844C29.0448 34.2844 32.8717 31.1795 33.9711 26.972L33.8807 26.8424C33.4171 26.2651 32.5859 25.4681 31.5304 25.4681C29.8754 25.4681 29.8754 27.4273 28.2204 27.4273C27.5207 27.4273 26.9196 27.0771 26.4588 26.6728C25.9381 27.1418 25.2488 27.4273 24.4928 27.4273C23.4014 27.4273 22.449 26.8324 21.9421 25.9491L21.9333 25.9579Z" fill="#557D73"/>
<path d="M31.8646 18.04C31.8449 18.056 31.8259 18.0731 31.8076 18.0914L30.828 19.071C30.5411 19.3579 30.5411 19.8231 30.828 20.11C31.1149 20.397 31.5801 20.397 31.867 20.11L32.7529 19.2241C32.4865 18.8068 32.1893 18.411 31.8646 18.04Z" fill="#557D73"/>
<path d="M18.0419 17.1142C18.0578 17.1339 18.075 17.153 18.0933 17.1713L19.0729 18.1509C19.3598 18.4378 19.825 18.4378 20.1119 18.1509C20.3988 17.8639 20.3988 17.3988 20.1119 17.1118L19.226 16.2259C18.8087 16.4923 18.4129 16.7895 18.0419 17.1142Z" fill="#557D73"/>
<path d="M22.9913 17.1713C22.7043 16.8844 22.7043 16.4192 22.9913 16.1323C23.2782 15.8453 23.7434 15.8453 24.0303 16.1323L25.0099 17.1118C25.2968 17.3988 25.2968 17.8639 25.0099 18.1509C24.7229 18.4378 24.2578 18.4378 23.9709 18.1509L22.9913 17.1713Z" fill="#557D73"/>
<path d="M28.9965 18.0722C29.2399 17.7476 29.1741 17.2871 28.8495 17.0436C28.5249 16.8001 28.0644 16.8659 27.821 17.1905L26.3516 19.1497C26.1081 19.4743 26.1739 19.9348 26.4985 20.1783C26.8231 20.4217 27.2836 20.356 27.5271 20.0314L28.9965 18.0722Z" fill="#557D73"/>
<path d="M20.9732 20.1392C21.0782 20.5312 21.481 20.7638 21.873 20.6588L23.2111 20.3002C23.6031 20.1952 23.8356 19.7923 23.7306 19.4004C23.6256 19.0085 23.2228 18.7759 22.8308 18.8809L21.4927 19.2394C21.1007 19.3445 20.8681 19.7473 20.9732 20.1392Z" fill="#557D73"/>
<path d="M29.8441 22.8761C29.8632 23.2814 29.55 23.6255 29.1447 23.6445C28.7394 23.6636 28.3954 23.3504 28.3764 22.9451L28.3113 21.5613C28.2923 21.156 28.6054 20.812 29.0107 20.7929C29.416 20.7739 29.76 21.087 29.7791 21.4923L29.8441 22.8761Z" fill="#557D73"/>
<path d="M30.7958 24.5459C31.064 24.8504 31.5282 24.8798 31.8327 24.6116L33.4765 23.164C33.7811 22.8958 33.8105 22.4315 33.5423 22.127C33.2742 21.8225 32.8099 21.7931 32.5054 22.0612L30.8616 23.5089C30.5571 23.7771 30.5276 24.2414 30.7958 24.5459Z" fill="#557D73"/>
<path d="M18.147 20.7335C17.9791 20.3641 18.1424 19.9285 18.5118 19.7606C18.8812 19.5927 19.3167 19.7561 19.4846 20.1254L20.0579 21.3866C20.2258 21.756 20.0625 22.1916 19.6931 22.3595C19.3237 22.5274 18.8882 22.3641 18.7202 21.9947L18.147 20.7335Z" fill="#557D73"/>
<path d="M19.5365 23.4061C19.8639 23.6457 19.9351 24.1054 19.6955 24.4328L18.8773 25.5508C18.6376 25.8782 18.1779 25.9494 17.8505 25.7097C17.5231 25.4701 17.4519 25.0104 17.6915 24.683L18.5097 23.565C18.7494 23.2376 19.2091 23.1664 19.5365 23.4061Z" fill="#557D73"/>
<path d="M15.5324 21.5294C15.5098 21.1243 15.82 20.7776 16.2251 20.755C16.6302 20.7324 16.977 21.0426 16.9995 21.4477L17.0766 22.8309C17.0991 23.236 16.789 23.5828 16.3839 23.6053C15.9788 23.6279 15.632 23.3178 15.6095 22.9126L15.5324 21.5294Z" fill="#557D73"/>
<defs>
<linearGradient id="paint0_linear_383_571" x1="24.4898" y1="-38.2041" x2="24.4898" y2="101.388" gradientUnits="userSpaceOnUse">
<stop stop-color="#C8E0DA"/>
<stop offset="1" stop-color="#C8E0DA" stop-opacity="0"/>
</linearGradient>
</defs>
</svg>
