<svg width="25" height="25" viewBox="0 0 25 25" fill="none" xmlns="http://www.w3.org/2000/svg">
<path fill-rule="evenodd" clip-rule="evenodd" d="M12.2187 3.31018C12.6406 3.31018 12.9826 3.65219 12.9826 4.07407L12.9826 18.5262L17.7897 13.7191C18.088 13.4208 18.5717 13.4208 18.87 13.7191C19.1683 14.0174 19.1683 14.5011 18.87 14.7994L12.7589 20.9105C12.6156 21.0538 12.4213 21.1343 12.2188 21.1343C12.0162 21.1343 11.8219 21.0538 11.6786 20.9105L5.56749 14.7994C5.26917 14.5011 5.26917 14.0174 5.56749 13.7191C5.86581 13.4208 6.34947 13.4208 6.64779 13.7191L11.4549 18.5262L11.4549 4.07407C11.4549 3.65219 11.7969 3.31018 12.2187 3.31018Z" fill="#26DE81"/>
</svg>
