<svg width="72" height="72" viewBox="0 0 72 72" fill="none" xmlns="http://www.w3.org/2000/svg">
<circle cx="36" cy="36" r="36" fill="url(#paint0_linear_361_333)"/>
<circle opacity="0.5" cx="36" cy="36" r="18" fill="#418CFD"/>
<path d="M29.8324 31.4053C29.4953 27.6537 26.6021 24.1579 25.1977 22.8789L24.4219 22.2154C27.5513 19.5847 31.5895 18 35.9977 18C39.9818 18 43.6636 19.2944 46.6455 21.4856C47.0668 22.7645 46.2643 25.4368 45.4216 26.7158C45.1164 27.179 44.4242 27.7542 43.6655 28.2993C41.9546 29.5286 39.7955 30.1366 38.6977 32.4C38.3839 33.047 38.3973 33.6795 38.5482 34.2293C38.6568 34.6245 38.7261 35.0541 38.7272 35.4743C38.7307 36.8332 37.3565 37.8148 35.9977 37.8C32.462 37.7614 30.1474 34.912 29.8324 31.4053Z" fill="#418CFD"/>
<path d="M38.5825 47.2968C40.3611 43.9451 46.2897 43.9451 46.2897 43.9451C52.4673 43.8807 53.3017 40.1299 53.8596 38.2341C52.8612 46.3006 46.5258 52.7128 38.4962 53.8282C37.9155 52.606 37.2276 49.8501 38.5825 47.2968Z" fill="#418CFD"/>
<defs>
<linearGradient id="paint0_linear_361_333" x1="36.7347" y1="-57.3061" x2="36.7347" y2="152.082" gradientUnits="userSpaceOnUse">
<stop stop-color="#B1D0FE"/>
<stop offset="1" stop-color="#B1D0FE" stop-opacity="0"/>
</linearGradient>
</defs>
</svg>
