<svg width="72" height="72" viewBox="0 0 72 72" fill="none" xmlns="http://www.w3.org/2000/svg">
<circle cx="36" cy="36" r="36" fill="url(#paint0_linear_361_349)"/>
<path fill-rule="evenodd" clip-rule="evenodd" d="M35.6295 22.9387C29.5564 22.9387 26.5199 22.9387 25.6351 24.8477C25.559 25.0118 25.4948 25.1823 25.4432 25.3575C24.8421 27.3958 26.9892 29.7583 31.2835 34.4833L34.1601 37.6326H37.0989L39.9755 34.4833C44.2697 29.7583 46.4169 27.3958 45.8158 25.3575C45.7641 25.1823 45.6999 25.0118 45.6239 24.8477C44.739 22.9387 41.7025 22.9387 35.6295 22.9387ZM32.6907 26.9795C32.082 26.9795 31.5886 27.4729 31.5886 28.0816C31.5886 28.6902 32.082 29.1836 32.6907 29.1836H38.5682C39.1769 29.1836 39.6703 28.6902 39.6703 28.0816C39.6703 27.4729 39.1769 26.9795 38.5682 26.9795H32.6907Z" fill="#418CFD"/>
<path opacity="0.5" d="M25.6351 50.4174C26.5199 52.3264 29.5564 52.3264 35.6295 52.3264C41.7025 52.3264 44.739 52.3264 45.6239 50.4174C45.6999 50.2534 45.7641 50.0829 45.8158 49.9077C46.4169 47.8694 44.2697 45.5069 39.9755 40.7818L37.0989 37.6326H34.1601L31.2835 40.7818C26.9892 45.5069 24.8421 47.8694 25.4432 49.9077C25.4948 50.0829 25.559 50.2534 25.6351 50.4174Z" fill="#418CFD"/>
<path d="M32.6958 46.0815C32.0872 46.0815 31.5938 46.5749 31.5938 47.1836C31.5938 47.7922 32.0872 48.2856 32.6958 48.2856H38.5733C39.182 48.2856 39.6754 47.7922 39.6754 47.1836C39.6754 46.5749 39.182 46.0815 38.5733 46.0815H32.6958Z" fill="#418CFD"/>
<defs>
<linearGradient id="paint0_linear_361_349" x1="36.7347" y1="-57.3061" x2="36.7347" y2="152.082" gradientUnits="userSpaceOnUse">
<stop stop-color="#B1D0FE"/>
<stop offset="1" stop-color="#B1D0FE" stop-opacity="0"/>
</linearGradient>
</defs>
</svg>
