<svg width="25" height="24" fill="none" xmlns="http://www.w3.org/2000/svg"><g clip-path="url(#a)"><path d="M6.586 23.915c-1.428-.065-2.203-.302-2.719-.503a4.547 4.547 0 0 1-1.683-1.095c-.513-.512-.83-1-1.095-1.683-.201-.516-.438-1.291-.503-2.718C.514 16.373.5 15.91.5 12c0-3.909.016-4.371.085-5.915.065-1.428.304-2.201.503-2.719a4.565 4.565 0 0 1 1.095-1.684c.513-.512 1-.83 1.684-1.095.515-.2 1.29-.438 2.718-.503C8.13.015 8.592 0 12.5 0c3.909 0 4.37.016 5.915.085 1.427.065 2.201.304 2.718.503a4.53 4.53 0 0 1 1.684 1.095c.512.512.828 1 1.095 1.684.2.515.438 1.29.503 2.718.07 1.544.085 2.007.085 5.915s-.014 4.371-.085 5.916c-.065 1.427-.304 2.202-.503 2.718a4.538 4.538 0 0 1-1.095 1.683 4.54 4.54 0 0 1-1.684 1.095c-.515.2-1.29.438-2.718.503-1.543.07-2.006.085-5.915.085-3.908 0-4.371-.014-5.914-.085Z" fill="url(#b)"/><path d="M6.586 23.915c-1.428-.065-2.203-.302-2.719-.503a4.547 4.547 0 0 1-1.683-1.095c-.513-.512-.83-1-1.095-1.683-.201-.516-.438-1.291-.503-2.718C.514 16.373.5 15.91.5 12c0-3.909.016-4.371.085-5.915.065-1.428.304-2.201.503-2.719a4.565 4.565 0 0 1 1.095-1.684c.513-.512 1-.83 1.684-1.095.515-.2 1.29-.438 2.718-.503C8.13.015 8.592 0 12.5 0c3.909 0 4.37.016 5.915.085 1.427.065 2.201.304 2.718.503a4.53 4.53 0 0 1 1.684 1.095c.512.512.828 1 1.095 1.684.2.515.438 1.29.503 2.718.07 1.544.085 2.007.085 5.915s-.014 4.371-.085 5.916c-.065 1.427-.304 2.202-.503 2.718a4.538 4.538 0 0 1-1.095 1.683 4.54 4.54 0 0 1-1.684 1.095c-.515.2-1.29.438-2.718.503-1.543.07-2.006.085-5.915.085-3.908 0-4.371-.014-5.914-.085Z" fill="url(#c)"/><path d="M10.167 12a2.333 2.333 0 1 1 4.667 0 2.333 2.333 0 0 1-4.667 0Zm-1.261 0a3.595 3.595 0 1 0 7.189 0 3.595 3.595 0 0 0-7.19 0m6.492-3.737a.84.84 0 1 0 .84-.84.84.84 0 0 0-.84.84Zm-5.725 9.435c-.682-.03-1.053-.145-1.3-.24a2.174 2.174 0 0 1-.805-.524 2.16 2.16 0 0 1-.524-.805c-.096-.246-.21-.617-.24-1.3-.034-.738-.041-.96-.041-2.829 0-1.87.007-2.09.04-2.829.032-.682.146-1.053.241-1.3.128-.327.28-.56.524-.805.245-.245.478-.397.805-.524.247-.096.618-.21 1.3-.24.738-.034.96-.041 2.828-.041 1.869 0 2.09.007 2.83.04.682.032 1.052.146 1.3.242.326.126.56.278.804.523.246.245.397.479.524.805.096.247.21.618.24 1.3.035.739.042.96.042 2.83 0 1.869-.007 2.09-.041 2.828-.031.683-.146 1.054-.241 1.3-.127.327-.279.56-.524.805a2.176 2.176 0 0 1-.805.523c-.246.097-.617.21-1.3.241-.738.034-.96.041-2.829.041-1.87 0-2.09-.007-2.828-.04M9.614 5.041c-.745.034-1.254.152-1.699.325-.46.179-.85.419-1.24.808-.39.389-.629.779-.807 1.24-.174.445-.292.954-.326 1.699-.034.746-.042.985-.042 2.886 0 1.901.008 2.14.042 2.886.034.745.152 1.254.326 1.7.178.46.417.85.807 1.24.39.388.78.628 1.24.807.446.173.954.291 1.7.325.746.034.984.042 2.885.042 1.901 0 2.14-.008 2.886-.042s1.255-.152 1.7-.325c.46-.18.85-.419 1.24-.808.39-.389.628-.78.807-1.24.173-.445.292-.954.325-1.699.034-.747.042-.985.042-2.886 0-1.901-.008-2.14-.042-2.886-.034-.745-.152-1.254-.325-1.7-.18-.46-.418-.85-.807-1.24a3.426 3.426 0 0 0-1.24-.807c-.445-.173-.954-.291-1.7-.325C14.64 5.008 14.403 5 12.502 5c-1.9 0-2.14.008-2.887.042" fill="#fff"/></g><defs><radialGradient id="b" cx="0" cy="0" r="1" gradientUnits="userSpaceOnUse" gradientTransform="translate(2.053 23.474) scale(30.4711)"><stop offset=".09" stop-color="#FA8F21"/><stop offset=".78" stop-color="#D82D7E"/></radialGradient><radialGradient id="c" cx="0" cy="0" r="1" gradientUnits="userSpaceOnUse" gradientTransform="translate(17.124 22.704) scale(26.8148)"><stop offset=".64" stop-color="#8C3AAA" stop-opacity="0"/><stop offset="1" stop-color="#8C3AAA"/></radialGradient><clipPath id="a"><rect x=".5" width="24" height="24" rx="12" fill="#fff"/></clipPath></defs></svg>