<svg width="25" height="24" fill="none" xmlns="http://www.w3.org/2000/svg"><g clip-path="url(#a)"><circle cx="12.667" cy="11.667" r="11.667" fill="#0A66C2"/><path d="M9.518 6.723c0 .324-.133.635-.369.864-.236.229-.556.357-.89.357-.334 0-.655-.129-.89-.358A1.204 1.204 0 0 1 7 6.722c0-.325.133-.635.37-.864.236-.23.556-.358.89-.358.334 0 .654.13.89.358.236.23.369.54.368.865Zm.038 2.126H7.038V16.5h2.518V8.85Zm3.98 0h-2.507V16.5h2.481v-4.015c0-2.236 3.003-2.444 3.003 0V16.5H19v-4.846c0-3.77-4.445-3.63-5.49-1.778l.025-1.027Z" fill="#fff"/></g><defs><clipPath id="a"><path fill="#fff" transform="translate(.5)" d="M0 0h24v24H0z"/></clipPath></defs></svg>