<svg width="119" height="40" viewBox="0 0 119 40" fill="none" xmlns="http://www.w3.org/2000/svg">
<path d="M8.23768 35.8592L7.94674 35.9016C5.26369 36.2895 2.7746 34.4287 2.38669 31.7457L0.051143 15.5928C-0.336768 12.9098 1.52399 10.4207 4.20704 10.0328L4.49797 9.99035C7.18102 9.60244 9.67012 11.4632 10.058 14.1463L12.3936 30.3011C12.7815 32.9821 10.9207 35.4712 8.23768 35.8592Z" fill="white"/>
<path d="M21.7159 26.2705L9.70079 35.1682C7.82185 36.5603 5.1691 36.1643 3.77707 34.2853L3.65989 34.1257C2.26785 32.2468 2.66385 29.594 4.54279 28.202L16.5579 19.3043C18.4369 17.9123 21.0896 18.3083 22.4816 20.1872L22.5988 20.3468C23.9909 22.2257 23.5969 24.8785 21.7159 26.2705Z" fill="white"/>
<path d="M12.3957 30.3421L11.3633 23.2001L4.5506 28.2449C2.67166 29.637 2.27567 32.2877 3.6677 34.1687L3.78488 34.3283C4.19097 34.8778 4.70819 35.296 5.27995 35.5849C6.09214 35.9405 7.00939 36.084 7.95088 35.9466L8.24181 35.9042C8.25192 35.9021 8.26202 35.9001 8.27414 35.8981C8.77721 35.7647 9.26412 35.5385 9.7086 35.2112L11.5896 33.8171C12.2603 32.8352 12.5795 31.6109 12.3957 30.3421Z" fill="#EFEFEF"/>
<path d="M15.8095 10.5096C17.6071 10.5096 19.0643 9.0524 19.0643 7.25481C19.0643 5.45723 17.6071 4 15.8095 4C14.0119 4 12.5547 5.45723 12.5547 7.25481C12.5547 9.0524 14.0119 10.5096 15.8095 10.5096Z" fill="white"/>
<path d="M50.6055 29.472C50.9682 29.472 51.2775 29.6 51.5335 29.856C51.7895 30.0907 51.9175 30.3893 51.9175 30.752C51.9175 31.1147 51.7895 31.4133 51.5335 31.648C51.2775 31.8827 50.9682 32 50.6055 32H39.5335C39.1708 32 38.8615 31.872 38.6055 31.616C38.3708 31.36 38.2535 31.0507 38.2535 30.688V10.88C38.2535 10.5173 38.3815 10.2187 38.6375 9.984C38.8935 9.728 39.2135 9.6 39.5975 9.6C39.9602 9.6 40.2695 9.728 40.5255 9.984C40.7815 10.2187 40.9095 10.5173 40.9095 10.88V30.048L40.2695 29.472H50.6055ZM70.8612 23.68C70.8612 25.344 70.4879 26.8267 69.7413 28.128C69.0159 29.4293 68.0239 30.4533 66.7653 31.2C65.5279 31.9467 64.1306 32.32 62.5733 32.32C61.0159 32.32 59.6079 31.9467 58.3493 31.2C57.0906 30.4533 56.0879 29.4293 55.3413 28.128C54.6159 26.8267 54.2533 25.344 54.2533 23.68C54.2533 22.016 54.6159 20.5333 55.3413 19.232C56.0879 17.9307 57.0906 16.9067 58.3493 16.16C59.6079 15.4133 61.0159 15.04 62.5733 15.04C64.1306 15.04 65.5279 15.4133 66.7653 16.16C68.0239 16.9067 69.0159 17.9307 69.7413 19.232C70.4879 20.5333 70.8612 22.016 70.8612 23.68ZM68.3013 23.68C68.3013 22.4427 68.0453 21.3547 67.5333 20.416C67.0426 19.4773 66.3599 18.7413 65.4853 18.208C64.6319 17.6747 63.6613 17.408 62.5733 17.408C61.4853 17.408 60.5039 17.6747 59.6293 18.208C58.7759 18.7413 58.0933 19.4773 57.5813 20.416C57.0693 21.3547 56.8133 22.4427 56.8133 23.68C56.8133 24.896 57.0693 25.9733 57.5813 26.912C58.0933 27.8507 58.7759 28.5973 59.6293 29.152C60.5039 29.6853 61.4853 29.952 62.5733 29.952C63.6613 29.952 64.6319 29.6853 65.4853 29.152C66.3599 28.5973 67.0426 27.8507 67.5333 26.912C68.0453 25.9733 68.3013 24.896 68.3013 23.68ZM87.0958 15.2C87.4584 15.2 87.7571 15.328 87.9918 15.584C88.2478 15.8187 88.3758 16.1173 88.3758 16.48V30.432C88.3758 32.224 88.0238 33.7067 87.3198 34.88C86.6158 36.0747 85.6664 36.96 84.4718 37.536C83.2984 38.112 81.9651 38.4 80.4718 38.4C79.6398 38.4 78.8398 38.3147 78.0718 38.144C77.3038 37.9733 76.6744 37.7493 76.1838 37.472C75.7784 37.28 75.4904 37.0347 75.3198 36.736C75.1704 36.4587 75.1491 36.16 75.2558 35.84C75.4051 35.456 75.6184 35.1893 75.8958 35.04C76.1944 34.8907 76.5038 34.8907 76.8238 35.04C77.1651 35.1893 77.6558 35.392 78.2958 35.648C78.9571 35.9253 79.6931 36.064 80.5038 36.064C81.6131 36.064 82.5624 35.8507 83.3518 35.424C84.1411 34.9973 84.7491 34.368 85.1758 33.536C85.6024 32.7253 85.8158 31.712 85.8158 30.496V28.224L86.1998 29.024C85.8584 29.6853 85.3998 30.2613 84.8238 30.752C84.2478 31.2427 83.5864 31.6267 82.8398 31.904C82.0931 32.1813 81.2718 32.32 80.3758 32.32C79.1598 32.32 78.1251 32.064 77.2718 31.552C76.4398 31.0187 75.7998 30.2933 75.3518 29.376C74.9251 28.4373 74.7118 27.36 74.7118 26.144V16.48C74.7118 16.1173 74.8291 15.8187 75.0638 15.584C75.3198 15.328 75.6291 15.2 75.9918 15.2C76.3758 15.2 76.6851 15.328 76.9198 15.584C77.1544 15.8187 77.2718 16.1173 77.2718 16.48V25.568C77.2718 27.0187 77.5918 28.1173 78.2318 28.864C78.8718 29.5893 79.8638 29.952 81.2078 29.952C82.0611 29.952 82.8291 29.76 83.5118 29.376C84.2158 28.992 84.7704 28.4693 85.1758 27.808C85.6024 27.1253 85.8158 26.3787 85.8158 25.568V16.48C85.8158 16.1173 85.9331 15.8187 86.1678 15.584C86.4024 15.328 86.7118 15.2 87.0958 15.2ZM106.75 15.296C107.113 15.296 107.411 15.424 107.646 15.68C107.902 15.9147 108.03 16.2133 108.03 16.576V30.688C108.03 31.0507 107.902 31.36 107.646 31.616C107.411 31.872 107.113 32 106.75 32C106.366 32 106.057 31.872 105.822 31.616C105.587 31.36 105.47 31.0507 105.47 30.688V27.648L106.078 27.584C106.078 28.0533 105.918 28.5653 105.598 29.12C105.278 29.6747 104.841 30.1973 104.286 30.688C103.731 31.1573 103.07 31.552 102.302 31.872C101.555 32.1707 100.745 32.32 99.87 32.32C98.4193 32.32 97.118 31.9467 95.966 31.2C94.814 30.432 93.8967 29.3973 93.214 28.096C92.5527 26.7947 92.222 25.312 92.222 23.648C92.222 21.9627 92.5527 20.48 93.214 19.2C93.8967 17.8987 94.814 16.8853 95.966 16.16C97.118 15.4133 98.398 15.04 99.806 15.04C100.723 15.04 101.577 15.1893 102.366 15.488C103.155 15.7867 103.838 16.192 104.414 16.704C105.011 17.216 105.47 17.7813 105.79 18.4C106.131 19.0187 106.302 19.6373 106.302 20.256L105.47 20.064V16.576C105.47 16.2133 105.587 15.9147 105.822 15.68C106.057 15.424 106.366 15.296 106.75 15.296ZM100.158 29.952C101.225 29.952 102.163 29.6747 102.974 29.12C103.806 28.5653 104.446 27.8187 104.894 26.88C105.363 25.92 105.598 24.8427 105.598 23.648C105.598 22.4747 105.363 21.4187 104.894 20.48C104.446 19.52 103.806 18.7733 102.974 18.24C102.163 17.6853 101.225 17.408 100.158 17.408C99.1127 17.408 98.174 17.6747 97.342 18.208C96.5313 18.7413 95.8913 19.4773 95.422 20.416C94.9527 21.3547 94.718 22.432 94.718 23.648C94.718 24.8427 94.942 25.92 95.39 26.88C95.8593 27.8187 96.4993 28.5653 97.31 29.12C98.142 29.6747 99.0913 29.952 100.158 29.952ZM115.59 30.688C115.59 31.0507 115.462 31.36 115.206 31.616C114.95 31.872 114.641 32 114.278 32C113.916 32 113.617 31.872 113.382 31.616C113.148 31.36 113.03 31.0507 113.03 30.688V9.6C113.03 9.23733 113.148 8.93867 113.382 8.704C113.638 8.448 113.948 8.32 114.31 8.32C114.694 8.32 115.004 8.448 115.238 8.704C115.473 8.93867 115.59 9.23733 115.59 9.6V30.688Z" fill="white"/>
</svg>
