<svg width="24" height="32" viewBox="0 0 24 32" fill="none" xmlns="http://www.w3.org/2000/svg">
<path d="M8.23768 31.8592L7.94674 31.9016C5.26369 32.2895 2.7746 30.4287 2.38669 27.7457L0.051143 11.5928C-0.336768 8.90979 1.52399 6.42069 4.20704 6.03278L4.49797 5.99035C7.18102 5.60244 9.67012 7.4632 10.058 10.1463L12.3936 26.3011C12.7815 28.9821 10.9207 31.4712 8.23768 31.8592Z" fill="#418CFD"/>
<path d="M21.7198 22.2704L9.7047 31.1681C7.82575 32.5601 5.17301 32.1641 3.78097 30.2852L3.66379 30.1256C2.27176 28.2467 2.66775 25.5939 4.54669 24.2019L16.5618 15.3042C18.4408 13.9121 21.0935 14.3081 22.4855 16.1871L22.6027 16.3467C23.9948 18.2256 23.6008 20.8784 21.7198 22.2704Z" fill="#80B2FE"/>
<path d="M12.3918 26.342L11.3594 19.2L4.54669 24.2448C2.66775 25.6368 2.27176 28.2876 3.66379 30.1685L3.78097 30.3281C4.18707 30.8777 4.70428 31.2959 5.27605 31.5848C6.08824 31.9404 7.00548 32.0838 7.94698 31.9465L8.23791 31.904C8.24801 31.902 8.25811 31.9 8.27023 31.898C8.77331 31.7646 9.26021 31.5383 9.7047 31.211L11.5857 29.817C12.2564 28.8351 12.5756 27.6107 12.3918 26.342Z" fill="#619FFD"/>
<path d="M15.8095 6.50963C17.6071 6.50963 19.0643 5.0524 19.0643 3.25481C19.0643 1.45723 17.6071 0 15.8095 0C14.0119 0 12.5547 1.45723 12.5547 3.25481C12.5547 5.0524 14.0119 6.50963 15.8095 6.50963Z" fill="#A0C5FE"/>
</svg>
