<svg width="359" height="343" viewBox="0 0 359 343" fill="none" xmlns="http://www.w3.org/2000/svg">
<g clip-path="url(#clip0_377_374)">
<path d="M53.9647 72.9857C74.8871 73.1464 99.5601 71.8605 126.912 67.5206C158.175 62.5378 185.018 54.7957 206.717 47C206.825 82.6834 217.674 171.035 217.674 171.035C217.674 171.035 237.981 249.661 246.928 277.737C239.534 287.032 175.669 348.3 94.0951 341.12C73.9763 339.352 56.724 333.19 42.8203 326.065C51.3125 287.756 58.4921 240.794 59.8851 187.001C61.0103 144.218 58.251 105.829 53.9647 72.9857Z" fill="#B1D0FE"/>
<mask id="mask0_377_374" style="mask-type:alpha" maskUnits="userSpaceOnUse" x="42" y="46" width="205" height="296">
<path d="M53.9647 72.9855C74.8871 73.1463 99.5601 71.8604 126.912 67.5205C158.175 62.5377 185.018 54.7956 206.717 46.9999C206.825 82.6833 217.674 171.035 217.674 171.035C217.674 171.035 237.981 249.661 246.928 277.736C239.534 287.032 175.669 348.3 94.0951 341.12C73.9763 339.352 56.724 333.19 42.8203 326.064C51.3125 287.756 58.4921 240.794 59.8851 187.001C61.0103 144.218 58.251 105.829 53.9647 72.9855Z" fill="#B1D0FE"/>
</mask>
<g mask="url(#mask0_377_374)">
<path d="M465.672 -73.0748C383.849 -49.0974 307.597 -13.5688 230.812 23.5227C156.14 59.5941 68.14 96.9675 3.40876 151.496C-32.8449 182.036 -31.6737 224.249 12.3366 246.711C48.3883 265.111 97.8026 248.814 133.41 238.152C187.405 221.985 243.866 202.465 291.076 171.042C347.381 133.564 263.665 132.451 236.797 135.58C176.904 142.554 121.392 180.953 71.7772 212.14C-35.9945 279.883 -138.028 362.764 -221.943 458.508" stroke="url(#paint0_linear_377_374)" stroke-width="44" stroke-linecap="round"/>
</g>
<path d="M67.8159 89.9579C85.6158 90.0814 106.579 88.9739 129.804 85.2829L129.804 85.2829C156.333 81.0478 179.134 74.4816 197.6 67.8565C197.709 98.2829 200.049 134.02 206.95 173.53C211.95 202.218 222.561 235.441 230.163 259.244C230.753 261.092 231.325 262.883 231.875 264.611C228.567 268.708 213.456 283.618 190.568 296.805C167.486 310.104 136.518 321.635 101.789 318.574C84.7466 317.073 70.1186 311.864 58.3092 305.823C65.5389 273.111 71.6452 233.032 72.8319 187.137M72.8319 187.137C72.8319 187.137 72.8319 187.137 72.8319 187.137L72.5819 187.13L72.8319 187.137Z" stroke="#418CFD" stroke-width="0.5"/>
<path d="M224.503 216.175C225.976 225.149 228.467 235.865 232.7 247.625C237.067 259.707 242.184 269.753 246.925 277.71C231.682 294.346 203.902 319.367 162.298 332.092C144.456 337.557 77.8846 357.944 34.3519 320.117C18.6266 306.455 10.938 289.578 7 277.71C35.3699 277.522 73.3572 274.468 116.434 262.654C162.834 249.983 199.187 231.552 224.503 216.175Z" fill="#91BCFE"/>
<path d="M154.206 173.403L129.317 175.58L129.025 172.245L153.914 170.068L154.206 173.403ZM132.775 180.409L129.763 180.673L129.057 172.604L132.069 172.34L132.775 180.409ZM153.016 155.667C153.179 157.532 152.803 159.287 151.886 160.933C150.968 162.555 149.593 163.904 147.759 164.98C145.902 166.058 143.671 166.711 141.065 166.939C138.459 167.167 136.161 166.923 134.171 166.205C132.178 165.464 130.601 164.373 129.439 162.933C128.254 161.495 127.58 159.855 127.419 158.014C127.254 156.126 127.63 154.37 128.548 152.748C129.443 151.128 130.807 149.792 132.643 148.74C134.476 147.664 136.707 147.011 139.337 146.781C141.943 146.553 144.254 146.809 146.271 147.548C148.261 148.265 149.849 149.343 151.034 150.781C152.194 152.197 152.855 153.826 153.016 155.667ZM149.83 156.018C149.715 154.703 149.256 153.586 148.453 152.669C147.624 151.73 146.467 151.036 144.983 150.588C143.498 150.139 141.704 150.007 139.6 150.191C137.496 150.375 135.763 150.816 134.403 151.513C133.019 152.212 132.012 153.095 131.382 154.162C130.729 155.231 130.46 156.423 130.575 157.738C130.688 159.029 131.159 160.145 131.988 161.084C132.793 162.025 133.938 162.72 135.423 163.169C136.881 163.595 138.663 163.716 140.767 163.532C142.871 163.348 144.616 162.918 146.002 162.243C147.387 161.544 148.405 160.66 149.059 159.591C149.688 158.524 149.945 157.333 149.83 156.018ZM150.988 132.49C151.151 134.355 150.775 136.111 149.859 137.757C148.941 139.379 147.565 140.728 145.732 141.804C143.875 142.882 141.643 143.535 139.037 143.763C136.431 143.991 134.133 143.746 132.143 143.029C130.151 142.288 128.574 141.197 127.412 139.757C126.226 138.318 125.553 136.679 125.391 134.838C125.226 132.949 125.603 131.194 126.521 129.572C127.415 127.951 128.78 126.615 130.615 125.563C132.448 124.488 134.68 123.835 137.31 123.605C139.916 123.377 142.227 123.632 144.243 124.371C146.233 125.089 147.821 126.166 149.007 127.604C150.167 129.021 150.827 130.649 150.988 132.49ZM147.803 132.841C147.688 131.526 147.229 130.41 146.426 129.492C145.597 128.553 144.44 127.859 142.955 127.411C141.47 126.963 139.676 126.831 137.572 127.015C135.468 127.199 133.736 127.639 132.375 128.337C130.991 129.036 129.984 129.919 129.355 130.986C128.702 132.055 128.432 133.247 128.547 134.562C128.66 135.853 129.131 136.968 129.96 137.907C130.765 138.849 131.91 139.544 133.395 139.992C134.854 140.419 136.635 140.54 138.739 140.356C140.843 140.172 142.588 139.742 143.975 139.067C145.359 138.367 146.378 137.483 147.031 136.414C147.661 135.347 147.918 134.156 147.803 132.841Z" fill="white"/>
<g filter="url(#filter0_d_377_374)">
<path d="M203.117 148.456L336.716 83.7067L344.002 8L220.45 78.2148L203.117 148.456Z" fill="white"/>
<path d="M336.245 83.3792L203.858 147.542L220.884 78.5433L343.412 8.91035L336.245 83.3792Z" stroke="#DADADA"/>
</g>
<path d="M341.572 7.58503L345.666 0.416682C345.988 -0.148735 346.801 -0.136756 347.106 0.440641L351.041 7.85816C351.122 8.01149 351.247 8.13368 351.401 8.21035L358.541 11.7849C359.138 12.0844 359.157 12.9397 358.572 13.2632L351.882 16.9623C351.754 17.0318 351.647 17.1348 351.572 17.2618L347.17 24.5979C346.836 25.1561 346.026 25.1274 345.732 24.5476L342.169 17.5397C342.094 17.3888 341.973 17.2642 341.823 17.1852L334.437 13.2153C333.861 12.9062 333.852 12.0724 334.423 11.7514L341.26 7.89649C341.39 7.82222 341.497 7.71441 341.572 7.58503Z" fill="#3D81F9"/>
<path d="M4.24053 276.248L6.53291 272.233C6.71333 271.917 7.16835 271.923 7.33949 272.247L9.54298 276.401C9.58809 276.486 9.6584 276.555 9.74463 276.598L13.743 278.6C14.0773 278.767 14.0879 279.246 13.7603 279.427L10.0139 281.499C9.94229 281.538 9.88259 281.596 9.84014 281.667L7.3753 285.775C7.18825 286.087 6.73455 286.071 6.57005 285.747L4.57483 281.822C4.53238 281.738 4.46473 281.668 4.38115 281.624L0.244785 279.401C-0.0775809 279.227 -0.0828873 278.761 0.236825 278.581L4.06542 276.422C4.13838 276.38 4.19808 276.32 4.24053 276.248Z" fill="#3D81F9"/>
<circle cx="268.518" cy="237.518" r="18" transform="rotate(-12.704 268.518 237.518)" fill="url(#paint1_linear_377_374)"/>
<path fill-rule="evenodd" clip-rule="evenodd" d="M266.917 230.406C267.254 230.33 267.588 230.542 267.664 230.878L270.264 242.413L273.236 237.712C273.421 237.42 273.807 237.333 274.099 237.517C274.39 237.702 274.477 238.088 274.293 238.38L270.515 244.357C270.426 244.497 270.286 244.596 270.124 244.632C269.962 244.669 269.793 244.64 269.653 244.551L263.676 240.773C263.384 240.589 263.297 240.203 263.481 239.911C263.666 239.619 264.052 239.532 264.343 239.716L269.045 242.688L266.445 231.153C266.369 230.817 266.58 230.482 266.917 230.406Z" fill="#26DE81"/>
<circle cx="27.4424" cy="99.4425" r="18" transform="rotate(-8.4228 27.4424 99.4425)" fill="url(#paint2_linear_377_374)"/>
<path fill-rule="evenodd" clip-rule="evenodd" d="M25.9665 92.4758C26.1722 92.1986 26.5636 92.1407 26.8408 92.3464L32.5193 96.5601C32.7965 96.7658 32.8544 97.1572 32.6487 97.4344C32.443 97.7116 32.0516 97.7696 31.7744 97.5639L27.3077 94.2493L29.0397 105.946C29.0902 106.288 28.8544 106.606 28.5129 106.656C28.1715 106.707 27.8537 106.471 27.8031 106.129L26.0711 94.4324L22.7566 98.8992C22.5509 99.1764 22.1594 99.2343 21.8822 99.0286C21.6051 98.823 21.5471 98.4315 21.7528 98.1543L25.9665 92.4758Z" fill="#FC5C65"/>
</g>
<defs>
<filter id="filter0_d_377_374" x="179.117" y="-16" width="204.883" height="204.457" filterUnits="userSpaceOnUse" color-interpolation-filters="sRGB">
<feFlood flood-opacity="0" result="BackgroundImageFix"/>
<feColorMatrix in="SourceAlpha" type="matrix" values="0 0 0 0 0 0 0 0 0 0 0 0 0 0 0 0 0 0 127 0" result="hardAlpha"/>
<feOffset dx="8" dy="8"/>
<feGaussianBlur stdDeviation="16"/>
<feComposite in2="hardAlpha" operator="out"/>
<feColorMatrix type="matrix" values="0 0 0 0 0 0 0 0 0 0 0 0 0 0 0 0 0 0 0.12 0"/>
<feBlend mode="normal" in2="BackgroundImageFix" result="effect1_dropShadow_377_374"/>
<feBlend mode="normal" in="SourceGraphic" in2="effect1_dropShadow_377_374" result="shape"/>
</filter>
<linearGradient id="paint0_linear_377_374" x1="265.221" y1="39.9311" x2="87.4319" y2="242.609" gradientUnits="userSpaceOnUse">
<stop stop-color="#91BCFE"/>
<stop offset="1" stop-color="#91BCFE" stop-opacity="0"/>
</linearGradient>
<linearGradient id="paint1_linear_377_374" x1="268.885" y1="190.865" x2="268.885" y2="295.559" gradientUnits="userSpaceOnUse">
<stop stop-color="#A6F1CB"/>
<stop offset="1" stop-color="#A6F1CB" stop-opacity="0"/>
</linearGradient>
<linearGradient id="paint2_linear_377_374" x1="27.8098" y1="52.7894" x2="27.8098" y2="157.483" gradientUnits="userSpaceOnUse">
<stop stop-color="#FEBCC0"/>
<stop offset="1" stop-color="#FEBCC0" stop-opacity="0"/>
</linearGradient>
<clipPath id="clip0_377_374">
<rect width="359" height="342.485" fill="white"/>
</clipPath>
</defs>
</svg>
