<svg width="443" height="295" viewBox="0 0 443 295" fill="none" xmlns="http://www.w3.org/2000/svg">
<g clip-path="url(#clip0_377_399)">
<path d="M232.02 290.684L174 176.578C242.721 99.8603 298.66 77.2848 396.411 62.4714L440.893 201.72C334.063 231.757 280.135 239.749 232.02 290.684Z" fill="#B1D0FE" stroke="#B1D0FE"/>
<path d="M422.87 199.11C326.863 225.898 278.398 233.026 235.158 278.454L183.016 176.686C244.775 108.265 295.046 88.1304 382.894 74.9189" stroke="#418CFD"/>
<path d="M396.51 62C371.592 106.206 353.52 129.627 315.188 155.304L379.01 294.552C414.909 265.617 431.737 251.258 442.832 203.654L396.51 62Z" fill="#91BCFE"/>
<path d="M245.454 209.825L233.485 184.778L236.841 183.174L248.811 208.221L245.454 209.825ZM229.809 190.259L228.36 187.228L236.48 183.347L237.929 186.379L229.809 190.259ZM263.444 201.672C261.567 202.569 259.594 202.861 257.524 202.55C255.478 202.227 253.538 201.322 251.704 199.834C249.859 198.322 248.309 196.255 247.056 193.632C245.803 191.01 245.161 188.523 245.132 186.173C245.126 183.811 245.646 181.745 246.691 179.975C247.725 178.18 249.169 176.84 251.021 175.955C252.922 175.046 254.895 174.754 256.941 175.076C258.975 175.375 260.898 176.274 262.708 177.774C264.542 179.261 266.091 181.329 267.356 183.975C268.609 186.598 269.245 189.102 269.262 191.488C269.291 193.838 268.789 195.911 267.755 197.705C266.734 199.464 265.297 200.786 263.444 201.672ZM261.837 198.494C263.16 197.862 264.143 196.949 264.784 195.756C265.438 194.527 265.709 193.053 265.597 191.333C265.484 189.614 264.922 187.695 263.91 185.578C262.898 183.46 261.765 181.83 260.509 180.686C259.241 179.519 257.93 178.815 256.575 178.577C255.208 178.314 253.862 178.498 252.539 179.131C251.24 179.752 250.263 180.676 249.609 181.905C248.943 183.11 248.667 184.572 248.779 186.292C248.904 187.976 249.473 189.876 250.485 191.994C251.496 194.111 252.624 195.759 253.867 196.938C255.134 198.106 256.452 198.821 257.819 199.084C259.174 199.323 260.514 199.127 261.837 198.494ZM286.768 190.526C284.891 191.423 282.918 191.715 280.848 191.404C278.802 191.081 276.862 190.176 275.028 188.688C273.182 187.176 271.633 185.109 270.379 182.486C269.126 179.864 268.485 177.377 268.455 175.027C268.45 172.665 268.97 170.599 270.015 168.829C271.049 167.034 272.492 165.694 274.345 164.809C276.246 163.9 278.219 163.608 280.265 163.93C282.299 164.229 284.221 165.128 286.031 166.628C287.865 168.116 289.415 170.183 290.68 172.829C291.933 175.452 292.568 177.956 292.585 180.342C292.615 182.692 292.113 184.765 291.079 186.559C290.057 188.318 288.62 189.64 286.768 190.526ZM285.16 187.348C286.484 186.716 287.466 185.803 288.108 184.61C288.762 183.381 289.033 181.907 288.92 180.187C288.808 178.468 288.246 176.549 287.234 174.432C286.222 172.315 285.088 170.684 283.832 169.54C282.565 168.373 281.254 167.67 279.898 167.431C278.531 167.168 277.186 167.352 275.863 167.985C274.563 168.606 273.587 169.531 272.933 170.759C272.267 171.964 271.99 173.426 272.103 175.146C272.228 176.83 272.796 178.73 273.808 180.848C274.82 182.965 275.947 184.613 277.191 185.793C278.458 186.96 279.775 187.676 281.142 187.938C282.498 188.177 283.837 187.981 285.16 187.348Z" fill="white"/>
<mask id="mask0_377_399" style="mask-type:alpha" maskUnits="userSpaceOnUse" x="173" y="61" width="269" height="231">
<path d="M232.02 290.684L174 176.578C242.721 99.8603 298.66 77.2848 396.411 62.4714L440.893 201.72C334.063 231.757 280.135 239.749 232.02 290.684Z" fill="#B1D0FE" stroke="#B1D0FE"/>
</mask>
<g mask="url(#mask0_377_399)">
<path d="M307.029 -138C282.42 -73.8959 267.928 -7.71734 254.177 59.5651C240.804 124.997 221.756 199.599 225.057 267.68C226.905 305.809 254.508 325.677 290.385 308.466C319.775 294.368 333.474 254.767 344.038 226.76C360.057 184.29 375.133 138.603 378.069 93.0256C381.571 38.6675 339.971 91.7296 328.852 110.462C304.066 152.219 301.542 206.519 297.28 253.521C288.021 355.615 291.259 461.429 311.581 561.923" stroke="url(#paint0_linear_377_399)" stroke-width="44" stroke-linecap="round"/>
</g>
<rect x="0.2" y="0.2" width="332.6" height="123.6" rx="11.8" fill="white" stroke="#C9C9C9" stroke-width="0.4"/>
<line x1="18.9965" y1="49.5" x2="307.997" y2="47.5" stroke="#DADADA"/>
<path d="M23.0355 32V23.6H24.2835V30.752H27.9015V32H23.0355ZM29.103 26H30.351V32H29.103V26ZM29.733 25.01C29.545 25.01 29.387 24.948 29.259 24.824C29.131 24.7 29.067 24.544 29.067 24.356C29.067 24.172 29.131 24.018 29.259 23.894C29.387 23.766 29.545 23.702 29.733 23.702C29.917 23.702 30.073 23.766 30.201 23.894C30.329 24.018 30.393 24.172 30.393 24.356C30.393 24.544 30.329 24.7 30.201 24.824C30.073 24.948 29.917 25.01 29.733 25.01ZM31.8787 32V26H33.1267V26.726C33.3187 26.49 33.5207 26.298 33.7327 26.15C33.9487 25.998 34.2047 25.922 34.5007 25.922C34.9407 25.922 35.3307 26.022 35.6707 26.222C36.0147 26.418 36.3027 26.692 36.5347 27.044C36.7667 26.688 37.0547 26.412 37.3987 26.216C37.7467 26.02 38.1347 25.922 38.5627 25.922C39.0787 25.922 39.5327 26.052 39.9247 26.312C40.3167 26.572 40.6247 26.918 40.8487 27.35C41.0727 27.778 41.1847 28.25 41.1847 28.766V32H39.9367V28.766C39.9367 28.47 39.8787 28.202 39.7627 27.962C39.6507 27.722 39.4927 27.53 39.2887 27.386C39.0847 27.242 38.8427 27.17 38.5627 27.17C38.2907 27.17 38.0467 27.242 37.8307 27.386C37.6187 27.53 37.4527 27.722 37.3327 27.962C37.2167 28.202 37.1587 28.47 37.1587 28.766V32H35.9107V28.766C35.9107 28.47 35.8507 28.202 35.7307 27.962C35.6107 27.722 35.4447 27.53 35.2327 27.386C35.0207 27.242 34.7767 27.17 34.5007 27.17C34.2367 27.17 34.0007 27.246 33.7927 27.398C33.5887 27.55 33.4267 27.75 33.3067 27.998C33.1867 28.246 33.1267 28.518 33.1267 28.814V32H31.8787ZM42.3044 26H43.5524V32H42.3044V26ZM42.9344 25.01C42.7464 25.01 42.5884 24.948 42.4604 24.824C42.3324 24.7 42.2684 24.544 42.2684 24.356C42.2684 24.172 42.3324 24.018 42.4604 23.894C42.5884 23.766 42.7464 23.702 42.9344 23.702C43.1184 23.702 43.2744 23.766 43.4024 23.894C43.5304 24.018 43.5944 24.172 43.5944 24.356C43.5944 24.544 43.5304 24.7 43.4024 24.824C43.2744 24.948 43.1184 25.01 42.9344 25.01ZM48.493 27.248H47.233L47.227 32H45.979L45.985 27.248H45.031V26H45.985L45.979 24.116H47.227L47.233 26H48.493V27.248ZM49.2492 32V26H50.4972V26.726C50.6892 26.49 50.8912 26.298 51.1032 26.15C51.3192 25.998 51.5752 25.922 51.8712 25.922C52.3112 25.922 52.7012 26.022 53.0412 26.222C53.3852 26.418 53.6732 26.692 53.9052 27.044C54.1372 26.688 54.4252 26.412 54.7692 26.216C55.1172 26.02 55.5052 25.922 55.9332 25.922C56.4492 25.922 56.9032 26.052 57.2952 26.312C57.6872 26.572 57.9952 26.918 58.2192 27.35C58.4432 27.778 58.5552 28.25 58.5552 28.766V32H57.3072V28.766C57.3072 28.47 57.2492 28.202 57.1332 27.962C57.0212 27.722 56.8632 27.53 56.6592 27.386C56.4552 27.242 56.2132 27.17 55.9332 27.17C55.6612 27.17 55.4172 27.242 55.2012 27.386C54.9892 27.53 54.8232 27.722 54.7032 27.962C54.5872 28.202 54.5292 28.47 54.5292 28.766V32H53.2812V28.766C53.2812 28.47 53.2212 28.202 53.1012 27.962C52.9812 27.722 52.8152 27.53 52.6032 27.386C52.3912 27.242 52.1472 27.17 51.8712 27.17C51.6072 27.17 51.3712 27.246 51.1632 27.398C50.9592 27.55 50.7972 27.75 50.6772 27.998C50.5572 28.246 50.4972 28.518 50.4972 28.814V32H49.2492ZM59.6748 29.132V26H60.9228V29.108C60.9228 29.448 60.9928 29.758 61.1328 30.038C61.2768 30.314 61.4708 30.536 61.7148 30.704C61.9628 30.868 62.2448 30.95 62.5608 30.95C62.8688 30.95 63.1388 30.868 63.3708 30.704C63.6068 30.536 63.7888 30.314 63.9168 30.038C64.0488 29.758 64.1148 29.448 64.1148 29.108V26H65.3628V32H64.1148V31.184C63.9068 31.484 63.6548 31.722 63.3588 31.898C63.0628 32.074 62.7288 32.162 62.3568 32.162C61.8208 32.162 61.3508 32.026 60.9468 31.754C60.5468 31.478 60.2368 31.11 60.0168 30.65C59.7968 30.19 59.6828 29.684 59.6748 29.132ZM69.4427 32V23.6H72.4247C72.8567 23.6 73.2467 23.688 73.5947 23.864C73.9467 24.04 74.2247 24.294 74.4287 24.626C74.6367 24.954 74.7407 25.348 74.7407 25.808C74.7407 26.032 74.7047 26.252 74.6327 26.468C74.5607 26.684 74.4587 26.874 74.3267 27.038C74.1947 27.202 74.0347 27.318 73.8467 27.386C74.1027 27.45 74.3147 27.566 74.4827 27.734C74.6547 27.898 74.7907 28.09 74.8907 28.31C74.9907 28.53 75.0607 28.758 75.1007 28.994C75.1447 29.23 75.1667 29.454 75.1667 29.666C75.1667 30.114 75.0587 30.514 74.8427 30.866C74.6267 31.218 74.3367 31.496 73.9727 31.7C73.6127 31.9 73.2147 32 72.7787 32H69.4427ZM70.6907 30.92H72.6587C72.9147 30.92 73.1467 30.856 73.3547 30.728C73.5667 30.6 73.7347 30.424 73.8587 30.2C73.9827 29.972 74.0447 29.716 74.0447 29.432C74.0447 29.184 73.9827 28.95 73.8587 28.73C73.7347 28.506 73.5667 28.326 73.3547 28.19C73.1467 28.054 72.9147 27.986 72.6587 27.986H70.6907V30.92ZM70.6907 26.924H72.2927C72.6207 26.924 72.9027 26.824 73.1387 26.624C73.3747 26.424 73.4927 26.15 73.4927 25.802C73.4927 25.43 73.3747 25.152 73.1387 24.968C72.9027 24.78 72.6207 24.686 72.2927 24.686H70.6907V26.924ZM76.0258 29.132V26H77.2738V29.108C77.2738 29.448 77.3438 29.758 77.4838 30.038C77.6278 30.314 77.8218 30.536 78.0658 30.704C78.3138 30.868 78.5958 30.95 78.9118 30.95C79.2198 30.95 79.4898 30.868 79.7218 30.704C79.9578 30.536 80.1398 30.314 80.2678 30.038C80.3998 29.758 80.4658 29.448 80.4658 29.108V26H81.7138V32H80.4658V31.184C80.2578 31.484 80.0058 31.722 79.7098 31.898C79.4138 32.074 79.0798 32.162 78.7078 32.162C78.1718 32.162 77.7018 32.026 77.2978 31.754C76.8978 31.478 76.5878 31.11 76.3678 30.65C76.1478 30.19 76.0338 29.684 76.0258 29.132ZM83.1028 32V23H84.3448V32H83.1028ZM90.469 26H91.717V32H90.463L90.415 31.13C90.239 31.438 90.001 31.686 89.701 31.874C89.405 32.062 89.053 32.156 88.645 32.156C88.201 32.156 87.785 32.074 87.397 31.91C87.013 31.742 86.673 31.51 86.377 31.214C86.085 30.918 85.855 30.578 85.687 30.194C85.523 29.806 85.441 29.39 85.441 28.946C85.441 28.518 85.521 28.116 85.681 27.74C85.841 27.36 86.063 27.028 86.347 26.744C86.631 26.46 86.959 26.238 87.331 26.078C87.707 25.914 88.109 25.832 88.537 25.832C88.973 25.832 89.357 25.932 89.689 26.132C90.025 26.328 90.301 26.58 90.517 26.888L90.469 26ZM88.675 30.95C89.035 30.95 89.345 30.86 89.605 30.68C89.869 30.5 90.067 30.258 90.199 29.954C90.335 29.65 90.393 29.314 90.373 28.946C90.349 28.594 90.255 28.274 90.091 27.986C89.931 27.698 89.717 27.47 89.449 27.302C89.181 27.13 88.877 27.044 88.537 27.044C88.181 27.044 87.859 27.134 87.571 27.314C87.287 27.494 87.067 27.736 86.911 28.04C86.755 28.344 86.687 28.682 86.707 29.054C86.731 29.402 86.835 29.72 87.019 30.008C87.207 30.296 87.445 30.526 87.733 30.698C88.025 30.866 88.339 30.95 88.675 30.95ZM98.601 28.856V32H97.353V28.88C97.353 28.54 97.281 28.232 97.137 27.956C96.997 27.676 96.803 27.454 96.555 27.29C96.311 27.122 96.033 27.038 95.721 27.038C95.409 27.038 95.135 27.122 94.899 27.29C94.667 27.454 94.485 27.676 94.353 27.956C94.225 28.232 94.161 28.54 94.161 28.88V32H92.913V26H94.161V26.81C94.369 26.506 94.621 26.268 94.917 26.096C95.213 25.92 95.547 25.832 95.919 25.832C96.459 25.832 96.927 25.97 97.323 26.246C97.723 26.522 98.035 26.888 98.259 27.344C98.483 27.8 98.597 28.304 98.601 28.856ZM102.746 32V23.6H103.994V32H102.746ZM111.061 28.856V32H109.813V28.88C109.813 28.54 109.741 28.232 109.597 27.956C109.457 27.676 109.263 27.454 109.015 27.29C108.771 27.122 108.493 27.038 108.181 27.038C107.869 27.038 107.595 27.122 107.359 27.29C107.127 27.454 106.945 27.676 106.813 27.956C106.685 28.232 106.621 28.54 106.621 28.88V32H105.373V26H106.621V26.81C106.829 26.506 107.081 26.268 107.377 26.096C107.673 25.92 108.007 25.832 108.379 25.832C108.919 25.832 109.387 25.97 109.783 26.246C110.183 26.522 110.495 26.888 110.719 27.344C110.943 27.8 111.057 28.304 111.061 28.856ZM112.264 26H113.512V32H112.264V26ZM112.894 25.01C112.706 25.01 112.548 24.948 112.42 24.824C112.292 24.7 112.228 24.544 112.228 24.356C112.228 24.172 112.292 24.018 112.42 23.894C112.548 23.766 112.706 23.702 112.894 23.702C113.078 23.702 113.234 23.766 113.362 23.894C113.49 24.018 113.554 24.172 113.554 24.356C113.554 24.544 113.49 24.7 113.362 24.824C113.234 24.948 113.078 25.01 112.894 25.01Z" fill="black"/>
<path d="M232.995 108V99.6H235.845C236.293 99.6 236.697 99.71 237.057 99.93C237.417 100.146 237.703 100.44 237.915 100.812C238.127 101.18 238.233 101.594 238.233 102.054C238.233 102.466 238.149 102.84 237.981 103.176C237.813 103.512 237.583 103.79 237.291 104.01C237.003 104.23 236.677 104.376 236.313 104.448L238.365 108H237.393L235.371 104.514H233.835V108H232.995ZM233.835 103.674H235.773C236.069 103.674 236.339 103.602 236.583 103.458C236.831 103.31 237.027 103.112 237.171 102.864C237.319 102.612 237.393 102.328 237.393 102.012C237.393 101.696 237.319 101.414 237.171 101.166C237.027 100.914 236.831 100.716 236.583 100.572C236.339 100.424 236.069 100.35 235.773 100.35H233.835V103.674ZM240.404 111H239.564V102H240.404V103.122C240.612 102.742 240.896 102.434 241.256 102.198C241.616 101.962 242.044 101.844 242.54 101.844C242.976 101.844 243.384 101.926 243.764 102.09C244.148 102.254 244.484 102.482 244.772 102.774C245.06 103.062 245.286 103.396 245.45 103.776C245.614 104.156 245.696 104.564 245.696 105C245.696 105.436 245.614 105.846 245.45 106.23C245.286 106.614 245.06 106.952 244.772 107.244C244.484 107.532 244.148 107.758 243.764 107.922C243.384 108.086 242.976 108.168 242.54 108.168C242.044 108.168 241.616 108.05 241.256 107.814C240.896 107.578 240.612 107.27 240.404 106.89V111ZM242.534 102.66C242.114 102.66 241.748 102.766 241.436 102.978C241.128 103.186 240.89 103.466 240.722 103.818C240.554 104.17 240.47 104.564 240.47 105C240.47 105.428 240.552 105.82 240.716 106.176C240.884 106.532 241.122 106.816 241.43 107.028C241.742 107.24 242.11 107.346 242.534 107.346C242.95 107.346 243.332 107.242 243.68 107.034C244.032 106.826 244.314 106.546 244.526 106.194C244.738 105.838 244.844 105.44 244.844 105C244.844 104.572 244.74 104.182 244.532 103.83C244.324 103.474 244.046 103.19 243.698 102.978C243.35 102.766 242.962 102.66 242.534 102.66ZM249.302 108V107.256C249.63 106.952 249.99 106.62 250.382 106.26C250.774 105.896 251.162 105.522 251.546 105.138C251.934 104.75 252.288 104.368 252.608 103.992C252.928 103.612 253.184 103.254 253.376 102.918C253.572 102.578 253.67 102.278 253.67 102.018C253.67 101.702 253.592 101.414 253.436 101.154C253.284 100.89 253.078 100.68 252.818 100.524C252.562 100.364 252.276 100.284 251.96 100.284C251.644 100.284 251.354 100.364 251.09 100.524C250.83 100.68 250.622 100.89 250.466 101.154C250.31 101.414 250.232 101.702 250.232 102.018H249.392C249.392 101.538 249.508 101.104 249.74 100.716C249.976 100.328 250.288 100.02 250.676 99.792C251.064 99.56 251.492 99.444 251.96 99.444C252.428 99.444 252.854 99.56 253.238 99.792C253.626 100.024 253.934 100.334 254.162 100.722C254.394 101.11 254.51 101.542 254.51 102.018C254.51 102.302 254.434 102.614 254.282 102.954C254.134 103.29 253.932 103.64 253.676 104.004C253.42 104.364 253.132 104.728 252.812 105.096C252.492 105.464 252.158 105.824 251.81 106.176C251.462 106.524 251.124 106.852 250.796 107.16H254.636V108H249.302ZM256.195 108.156C256.063 108.156 255.951 108.108 255.859 108.012C255.767 107.92 255.721 107.806 255.721 107.67C255.721 107.542 255.767 107.432 255.859 107.34C255.951 107.244 256.063 107.196 256.195 107.196C256.331 107.196 256.445 107.244 256.537 107.34C256.633 107.432 256.681 107.542 256.681 107.67C256.681 107.806 256.633 107.92 256.537 108.012C256.445 108.108 256.331 108.156 256.195 108.156ZM260.452 108.156C259.94 108.156 259.474 108.032 259.054 107.784C258.638 107.536 258.308 107.204 258.064 106.788C257.82 106.368 257.698 105.908 257.698 105.408H258.538C258.538 105.756 258.624 106.076 258.796 106.368C258.968 106.656 259.198 106.886 259.486 107.058C259.778 107.23 260.1 107.316 260.452 107.316C260.8 107.316 261.118 107.23 261.406 107.058C261.694 106.886 261.924 106.656 262.096 106.368C262.272 106.076 262.36 105.756 262.36 105.408C262.36 105.056 262.276 104.736 262.108 104.448C261.944 104.156 261.71 103.924 261.406 103.752C261.106 103.576 260.748 103.488 260.332 103.488H258.292L259.084 99.6H263.014V100.44H259.762L259.324 102.648L260.302 102.654C260.874 102.662 261.376 102.784 261.808 103.02C262.244 103.256 262.584 103.58 262.828 103.992C263.076 104.4 263.2 104.872 263.2 105.408C263.2 105.784 263.128 106.138 262.984 106.47C262.844 106.802 262.646 107.096 262.39 107.352C262.138 107.604 261.846 107.802 261.514 107.946C261.186 108.086 260.832 108.156 260.452 108.156ZM267.021 108.156C266.517 108.156 266.067 108.044 265.671 107.82C265.275 107.592 264.937 107.278 264.657 106.878C264.377 106.478 264.163 106.016 264.015 105.492C263.871 104.964 263.799 104.4 263.799 103.8C263.799 103.2 263.871 102.636 264.015 102.108C264.163 101.58 264.377 101.118 264.657 100.722C264.937 100.322 265.275 100.01 265.671 99.786C266.067 99.558 266.517 99.444 267.021 99.444C267.521 99.444 267.969 99.558 268.365 99.786C268.761 100.01 269.097 100.322 269.373 100.722C269.649 101.118 269.859 101.58 270.003 102.108C270.151 102.636 270.225 103.2 270.225 103.8C270.225 104.4 270.151 104.964 270.003 105.492C269.859 106.016 269.649 106.478 269.373 106.878C269.097 107.278 268.761 107.592 268.365 107.82C267.969 108.044 267.521 108.156 267.021 108.156ZM267.021 107.316C267.549 107.316 267.991 107.154 268.347 106.83C268.707 106.506 268.977 106.078 269.157 105.546C269.337 105.01 269.427 104.428 269.427 103.8C269.427 103.136 269.333 102.54 269.145 102.012C268.961 101.48 268.689 101.06 268.329 100.752C267.973 100.44 267.537 100.284 267.021 100.284C266.613 100.284 266.257 100.378 265.953 100.566C265.649 100.754 265.397 101.012 265.197 101.34C264.997 101.668 264.847 102.044 264.747 102.468C264.647 102.888 264.597 103.332 264.597 103.8C264.597 104.432 264.689 105.016 264.873 105.552C265.057 106.084 265.329 106.512 265.689 106.836C266.049 107.156 266.493 107.316 267.021 107.316ZM273.932 108.156C273.428 108.156 272.978 108.044 272.582 107.82C272.186 107.592 271.848 107.278 271.568 106.878C271.288 106.478 271.074 106.016 270.926 105.492C270.782 104.964 270.71 104.4 270.71 103.8C270.71 103.2 270.782 102.636 270.926 102.108C271.074 101.58 271.288 101.118 271.568 100.722C271.848 100.322 272.186 100.01 272.582 99.786C272.978 99.558 273.428 99.444 273.932 99.444C274.432 99.444 274.88 99.558 275.276 99.786C275.672 100.01 276.008 100.322 276.284 100.722C276.56 101.118 276.77 101.58 276.914 102.108C277.062 102.636 277.136 103.2 277.136 103.8C277.136 104.4 277.062 104.964 276.914 105.492C276.77 106.016 276.56 106.478 276.284 106.878C276.008 107.278 275.672 107.592 275.276 107.82C274.88 108.044 274.432 108.156 273.932 108.156ZM273.932 107.316C274.46 107.316 274.902 107.154 275.258 106.83C275.618 106.506 275.888 106.078 276.068 105.546C276.248 105.01 276.338 104.428 276.338 103.8C276.338 103.136 276.244 102.54 276.056 102.012C275.872 101.48 275.6 101.06 275.24 100.752C274.884 100.44 274.448 100.284 273.932 100.284C273.524 100.284 273.168 100.378 272.864 100.566C272.56 100.754 272.308 101.012 272.108 101.34C271.908 101.668 271.758 102.044 271.658 102.468C271.558 102.888 271.508 103.332 271.508 103.8C271.508 104.432 271.6 105.016 271.784 105.552C271.968 106.084 272.24 106.512 272.6 106.836C272.96 107.156 273.404 107.316 273.932 107.316ZM278.333 108.156C278.201 108.156 278.089 108.108 277.997 108.012C277.905 107.92 277.859 107.806 277.859 107.67C277.859 107.542 277.905 107.432 277.997 107.34C278.089 107.244 278.201 107.196 278.333 107.196C278.469 107.196 278.583 107.244 278.675 107.34C278.771 107.432 278.819 107.542 278.819 107.67C278.819 107.806 278.771 107.92 278.675 108.012C278.583 108.108 278.469 108.156 278.333 108.156ZM282.997 108.156C282.493 108.156 282.043 108.044 281.647 107.82C281.251 107.592 280.913 107.278 280.633 106.878C280.353 106.478 280.139 106.016 279.991 105.492C279.847 104.964 279.775 104.4 279.775 103.8C279.775 103.2 279.847 102.636 279.991 102.108C280.139 101.58 280.353 101.118 280.633 100.722C280.913 100.322 281.251 100.01 281.647 99.786C282.043 99.558 282.493 99.444 282.997 99.444C283.497 99.444 283.945 99.558 284.341 99.786C284.737 100.01 285.073 100.322 285.349 100.722C285.625 101.118 285.835 101.58 285.979 102.108C286.127 102.636 286.201 103.2 286.201 103.8C286.201 104.4 286.127 104.964 285.979 105.492C285.835 106.016 285.625 106.478 285.349 106.878C285.073 107.278 284.737 107.592 284.341 107.82C283.945 108.044 283.497 108.156 282.997 108.156ZM282.997 107.316C283.525 107.316 283.967 107.154 284.323 106.83C284.683 106.506 284.953 106.078 285.133 105.546C285.313 105.01 285.403 104.428 285.403 103.8C285.403 103.136 285.309 102.54 285.121 102.012C284.937 101.48 284.665 101.06 284.305 100.752C283.949 100.44 283.513 100.284 282.997 100.284C282.589 100.284 282.233 100.378 281.929 100.566C281.625 100.754 281.373 101.012 281.173 101.34C280.973 101.668 280.823 102.044 280.723 102.468C280.623 102.888 280.573 103.332 280.573 103.8C280.573 104.432 280.665 105.016 280.849 105.552C281.033 106.084 281.305 106.512 281.665 106.836C282.025 107.156 282.469 107.316 282.997 107.316ZM289.908 108.156C289.404 108.156 288.954 108.044 288.558 107.82C288.162 107.592 287.824 107.278 287.544 106.878C287.264 106.478 287.05 106.016 286.902 105.492C286.758 104.964 286.686 104.4 286.686 103.8C286.686 103.2 286.758 102.636 286.902 102.108C287.05 101.58 287.264 101.118 287.544 100.722C287.824 100.322 288.162 100.01 288.558 99.786C288.954 99.558 289.404 99.444 289.908 99.444C290.408 99.444 290.856 99.558 291.252 99.786C291.648 100.01 291.984 100.322 292.26 100.722C292.536 101.118 292.746 101.58 292.89 102.108C293.038 102.636 293.112 103.2 293.112 103.8C293.112 104.4 293.038 104.964 292.89 105.492C292.746 106.016 292.536 106.478 292.26 106.878C291.984 107.278 291.648 107.592 291.252 107.82C290.856 108.044 290.408 108.156 289.908 108.156ZM289.908 107.316C290.436 107.316 290.878 107.154 291.234 106.83C291.594 106.506 291.864 106.078 292.044 105.546C292.224 105.01 292.314 104.428 292.314 103.8C292.314 103.136 292.22 102.54 292.032 102.012C291.848 101.48 291.576 101.06 291.216 100.752C290.86 100.44 290.424 100.284 289.908 100.284C289.5 100.284 289.144 100.378 288.84 100.566C288.536 100.754 288.284 101.012 288.084 101.34C287.884 101.668 287.734 102.044 287.634 102.468C287.534 102.888 287.484 103.332 287.484 103.8C287.484 104.432 287.576 105.016 287.76 105.552C287.944 106.084 288.216 106.512 288.576 106.836C288.936 107.156 289.38 107.316 289.908 107.316ZM296.819 108.156C296.315 108.156 295.865 108.044 295.469 107.82C295.073 107.592 294.735 107.278 294.455 106.878C294.175 106.478 293.961 106.016 293.813 105.492C293.669 104.964 293.597 104.4 293.597 103.8C293.597 103.2 293.669 102.636 293.813 102.108C293.961 101.58 294.175 101.118 294.455 100.722C294.735 100.322 295.073 100.01 295.469 99.786C295.865 99.558 296.315 99.444 296.819 99.444C297.319 99.444 297.767 99.558 298.163 99.786C298.559 100.01 298.895 100.322 299.171 100.722C299.447 101.118 299.657 101.58 299.801 102.108C299.949 102.636 300.023 103.2 300.023 103.8C300.023 104.4 299.949 104.964 299.801 105.492C299.657 106.016 299.447 106.478 299.171 106.878C298.895 107.278 298.559 107.592 298.163 107.82C297.767 108.044 297.319 108.156 296.819 108.156ZM296.819 107.316C297.347 107.316 297.789 107.154 298.145 106.83C298.505 106.506 298.775 106.078 298.955 105.546C299.135 105.01 299.225 104.428 299.225 103.8C299.225 103.136 299.131 102.54 298.943 102.012C298.759 101.48 298.487 101.06 298.127 100.752C297.771 100.44 297.335 100.284 296.819 100.284C296.411 100.284 296.055 100.378 295.751 100.566C295.447 100.754 295.195 101.012 294.995 101.34C294.795 101.668 294.645 102.044 294.545 102.468C294.445 102.888 294.395 103.332 294.395 103.8C294.395 104.432 294.487 105.016 294.671 105.552C294.855 106.084 295.127 106.512 295.487 106.836C295.847 107.156 296.291 107.316 296.819 107.316ZM300.746 108.672L301.118 106.644H301.958L301.304 108.672H300.746ZM303.28 103.98H307.12V104.82H303.28V103.98Z" fill="black"/>
<rect x="19" y="70" width="289" height="16" rx="8" fill="#A0C5FE"/>
<rect x="19" y="70" width="222" height="16" rx="8" fill="#418CFD"/>
</g>
<defs>
<linearGradient id="paint0_linear_377_399" x1="329.5" y1="-144" x2="246.5" y2="442.5" gradientUnits="userSpaceOnUse">
<stop stop-color="#91BCFE"/>
<stop offset="1" stop-color="#91BCFE" stop-opacity="0"/>
</linearGradient>
<clipPath id="clip0_377_399">
<rect width="442.832" height="294.552" fill="white"/>
</clipPath>
</defs>
</svg>
