<svg width="25" height="24" fill="none" xmlns="http://www.w3.org/2000/svg"><rect x=".5" width="24" height="24" rx="12" fill="#000"/><path d="M10.635 9.924v-.592c-.198-.05-.395-.05-.593-.05A4.53 4.53 0 0 0 5.5 13.825c0 1.53.79 2.913 1.926 3.703l-.05-.05c-.74-.79-1.135-1.876-1.135-3.011 0-2.518 1.975-4.493 4.394-4.543Z" fill="#25F4EE"/><path d="M10.734 16.54c1.135 0 2.024-.888 2.073-2.024V4.642h1.778c-.05-.198-.05-.395-.05-.642h-2.468v9.875a2.068 2.068 0 0 1-2.074 1.975c-.345 0-.691-.1-.938-.247.395.543.988.938 1.679.938ZM17.992 8v-.593a3.477 3.477 0 0 1-1.877-.544c.494.544 1.136.988 1.877 1.136Z" fill="#25F4EE"/><path d="M16.115 6.863c-.543-.592-.839-1.382-.839-2.271h-.691c.197.988.79 1.778 1.53 2.271Zm-6.072 4.839a2.086 2.086 0 0 0-2.074 2.074c0 .79.493 1.48 1.135 1.826a2.009 2.009 0 0 1-.395-1.185c0-1.135.938-2.073 2.074-2.073.198 0 .395.05.593.099V9.924c-.198-.049-.395-.049-.593-.049h-.099v1.876c-.246 0-.444-.05-.641-.05Z" fill="#FE2C55"/><path d="M17.992 7.999v1.876c-1.284 0-2.47-.395-3.407-1.086v5.036a4.53 4.53 0 0 1-4.543 4.543 4.678 4.678 0 0 1-2.616-.79 4.551 4.551 0 0 0 3.308 1.431 4.53 4.53 0 0 0 4.542-4.542V9.431a5.948 5.948 0 0 0 3.407 1.086V8.048c-.198 0-.445 0-.691-.049Z" fill="#FE2C55"/><path d="M14.585 13.825V8.789a5.947 5.947 0 0 0 3.407 1.086V7.95a3.453 3.453 0 0 1-1.877-1.086 3.287 3.287 0 0 1-1.48-2.271h-1.828v9.875a2.068 2.068 0 0 1-2.073 1.975c-.692 0-1.284-.346-1.68-.84-.641-.296-1.085-.987-1.085-1.777 0-1.136.938-2.074 2.073-2.074.198 0 .395.05.593.099V9.924a4.542 4.542 0 0 0-4.444 4.543c0 1.185.445 2.271 1.235 3.11.74.494 1.629.84 2.616.84 2.518-.05 4.543-2.123 4.543-4.592Z" fill="#fff"/></svg>