<svg width="72" height="72" viewBox="0 0 72 72" fill="none" xmlns="http://www.w3.org/2000/svg">
<g clip-path="url(#clip0_512_460)">
<circle cx="36" cy="36" r="36" fill="url(#paint0_linear_512_460)"/>
<path fill-rule="evenodd" clip-rule="evenodd" d="M39.1178 45.2031L48.4728 35.8762C49.82 34.5329 50.4936 33.8613 50.8485 33.0073C51.2033 32.1532 51.2033 31.2035 51.2033 29.3039V28.3964C51.2033 25.4754 51.2033 24.0148 50.2931 23.1074C49.3829 22.2 47.918 22.2 44.9882 22.2H44.078C42.1727 22.2 41.2201 22.2 40.3634 22.5537C39.5068 22.9075 38.8332 23.5791 37.486 24.9223L28.131 34.2492C26.5567 35.8187 25.5806 36.7919 25.2026 37.7319C25.0832 38.0289 25.0234 38.3226 25.0234 38.6307C25.0234 39.9141 26.0593 40.9468 28.131 43.0123L28.4094 43.2899L31.671 39.9796C32.1362 39.5075 32.896 39.5019 33.3681 39.967C33.8401 40.4322 33.8458 41.192 33.3806 41.6641L30.109 44.9844L30.3283 45.2031C32.4 47.2685 33.4359 48.3013 34.7231 48.3013C35.0075 48.3013 35.2796 48.2509 35.5534 48.15C36.5186 47.7945 37.5038 46.8122 39.1178 45.2031ZM43.5127 34.2499C42.2991 35.4598 40.3316 35.4598 39.118 34.2499C37.9044 33.0399 37.9044 31.0783 39.118 29.8683C40.3316 28.6584 42.2991 28.6584 43.5127 29.8683C44.7263 31.0783 44.7263 33.0399 43.5127 34.2499Z" fill="#418CFD"/>
<g opacity="0.5">
<path d="M30.458 28.541L26.389 32.5978C25.641 33.3435 24.9549 34.0275 24.4131 34.6458C24.0652 35.0429 23.7174 35.4775 23.4229 35.9577L23.3833 35.9182C23.308 35.8432 23.2703 35.8056 23.2325 35.7689C22.5253 35.0827 21.6934 34.5371 20.7813 34.1613C20.7326 34.1412 20.6831 34.1216 20.5842 34.0824L19.9783 33.8424C19.1576 33.5171 18.9388 32.4606 19.5634 31.8379C21.3557 30.051 23.5076 27.9056 24.5462 27.4747C25.4621 27.0947 26.4515 26.9682 27.4058 27.1092C28.2801 27.2385 29.1072 27.6876 30.458 28.541Z" fill="#418CFD"/>
<path d="M37.4058 49.9012C37.7337 50.234 37.9515 50.469 38.1483 50.7202C38.4081 51.0517 38.6404 51.4037 38.8428 51.7728C39.0707 52.1883 39.2476 52.6321 39.6015 53.5198C39.8896 54.2424 40.8466 54.4335 41.4024 53.8793L41.5369 53.7452C43.3292 51.9582 45.4811 49.8128 45.9133 48.7773C46.2944 47.8642 46.4213 46.8777 46.2798 45.9263C46.1502 45.0547 45.6999 44.2302 44.8441 42.8838L40.7615 46.9542C39.9966 47.7168 39.2953 48.416 38.661 48.9638C38.2809 49.2921 37.865 49.6202 37.4058 49.9012Z" fill="#418CFD"/>
</g>
</g>
<defs>
<linearGradient id="paint0_linear_512_460" x1="36.7347" y1="-57.3061" x2="36.7347" y2="152.082" gradientUnits="userSpaceOnUse">
<stop stop-color="#B1D0FE"/>
<stop offset="1" stop-color="#B1D0FE" stop-opacity="0"/>
</linearGradient>
<clipPath id="clip0_512_460">
<rect width="72" height="72" fill="white"/>
</clipPath>
</defs>
</svg>
