<svg width="72" height="72" viewBox="0 0 72 72" fill="none" xmlns="http://www.w3.org/2000/svg">
<g clip-path="url(#clip0_512_443)">
<circle cx="36" cy="36" r="36" fill="url(#paint0_linear_512_443)"/>
<path fill-rule="evenodd" clip-rule="evenodd" d="M41.9602 20.8754C41.6086 20.5238 41.1662 20.5392 40.9235 20.5714C40.6942 20.6018 40.4194 20.68 40.1576 20.7545L39.956 20.8118L39.7922 20.7084C39.5704 20.5684 39.3322 20.4179 39.1203 20.3258C38.8814 20.2219 38.478 20.1038 38.0541 20.3265C37.6384 20.545 37.5016 20.9362 37.445 21.1851C37.3935 21.4116 37.3715 21.6948 37.3506 21.9641L37.3347 22.1681L37.3333 22.1851L37.1548 22.3321C36.9415 22.5076 36.7202 22.6897 36.5632 22.8613C36.3969 23.0431 36.1406 23.3846 36.2057 23.8602C36.273 24.3521 36.6292 24.6071 36.8518 24.7305C37.0533 24.8423 37.3185 24.9401 37.5658 25.0313L37.74 25.0957L37.8043 25.2699C37.8955 25.5171 37.9934 25.7823 38.1051 25.9839C38.2286 26.2064 38.4836 26.5626 38.9754 26.6299C39.451 26.695 39.7926 26.4387 39.9743 26.2724C40.146 26.1154 40.3281 25.8941 40.5035 25.6808L40.6505 25.5023L40.6675 25.501L40.8715 25.485C41.1408 25.4641 41.4241 25.4421 41.6505 25.3906C41.8994 25.334 42.2906 25.1972 42.5091 24.7815C42.7319 24.3577 42.6137 23.9543 42.5098 23.7153C42.4177 23.5034 42.2673 23.2652 42.1272 23.0435L42.0238 22.8796L42.0811 22.678C42.1556 22.4162 42.2338 22.1414 42.2642 21.9121C42.2964 21.6694 42.3118 21.227 41.9602 20.8754Z" fill="#418CFD"/>
<path d="M33.2956 20.4574C33.861 20.803 34.0392 21.5416 33.6935 22.1071C33.4427 22.5174 33.5055 23.0462 33.8456 23.3862L34.0022 23.5428C34.9441 24.4847 35.2914 25.8683 34.906 27.1433C34.7142 27.7777 34.0445 28.1365 33.4101 27.9448C32.7757 27.753 32.4169 27.0833 32.6086 26.4489C32.738 26.0208 32.6214 25.5561 32.3052 25.2399L32.1486 25.0833C31.0245 23.9592 30.8167 22.2116 31.6458 20.8553C31.9915 20.2898 32.7301 20.1117 33.2956 20.4574Z" fill="#418CFD"/>
<path d="M51.2515 38.7299C50.6728 38.4768 49.9997 38.5831 49.5271 39.0022C48.2323 40.1504 46.3481 40.3412 44.8494 39.4759L44.5088 39.2793C43.9349 38.9479 43.7382 38.214 44.0696 37.6401C44.4009 37.0661 45.1349 36.8695 45.7088 37.2008L46.0494 37.3975C46.6534 37.7462 47.4129 37.6693 47.9348 37.2065C49.1073 36.1668 50.7771 35.9031 52.213 36.5309L52.6793 36.7348C53.2866 37.0003 53.5636 37.7078 53.2981 38.3151C53.0326 38.9223 52.3251 39.1993 51.7179 38.9338L51.2515 38.7299Z" fill="#418CFD"/>
<path d="M37.6629 28.4861C37.3278 28.151 36.7844 28.151 36.4492 28.4861C36.1141 28.8213 36.1141 29.3646 36.4492 29.6998C36.7844 30.0349 37.3278 30.0349 37.6629 29.6998C37.9981 29.3646 37.9981 28.8213 37.6629 28.4861Z" fill="#418CFD"/>
<path fill-rule="evenodd" clip-rule="evenodd" d="M53.0357 31.1826C53.445 32.0688 53.1688 33.075 52.4214 33.8224C51.9879 34.2558 51.4071 34.4521 50.8899 34.5441C50.3608 34.6382 49.8015 34.64 49.3115 34.6087C48.8167 34.577 48.363 34.5094 48.0349 34.4504C47.8701 34.4208 47.7348 34.393 47.6395 34.3723C47.5918 34.3619 47.5539 34.3533 47.5272 34.347L47.4956 34.3395L47.4864 34.3373L47.4834 34.3366L47.4816 34.3361C47.1935 34.2648 46.9686 34.0399 46.8973 33.7518L47.6738 33.5596C46.8973 33.7518 46.8968 33.75 46.8968 33.75L46.8961 33.747L46.8939 33.7377L46.8864 33.7062C46.8801 33.6794 46.8715 33.6416 46.8611 33.5939C46.8404 33.4986 46.8126 33.3633 46.783 33.1984C46.724 32.8704 46.6564 32.4167 46.6247 31.9219C46.5934 31.4319 46.5952 30.8726 46.6893 30.3435C46.7813 29.8263 46.9776 29.2454 47.411 28.812C48.1584 28.0646 49.1646 27.7884 50.0508 28.1977C50.7231 28.5082 51.1603 29.1367 51.325 29.9084C52.0967 30.073 52.7251 30.5103 53.0357 31.1826Z" fill="#418CFD"/>
<g opacity="0.5">
<path d="M45.3056 24.5898C45.9555 24.7197 46.377 25.3519 46.247 26.0018L46.0166 27.1537C45.6995 28.739 44.5573 30.0329 43.0236 30.5441C42.3069 30.783 41.7732 31.3876 41.625 32.1284L41.3947 33.2803C41.2647 33.9301 40.6325 34.3516 39.9826 34.2216C39.3328 34.0916 38.9113 33.4595 39.0413 32.8096L39.2717 31.6577C39.5887 30.0724 40.7309 28.7785 42.2647 28.2673C42.9813 28.0284 43.5151 27.4238 43.6632 26.683L43.8936 25.5311C44.0236 24.8812 44.6558 24.4598 45.3056 24.5898Z" fill="#418CFD"/>
<path d="M28.0873 23.3405C28.4225 23.0053 28.9658 23.0053 29.301 23.3405C29.6361 23.6756 29.6361 24.219 29.301 24.5542C28.9658 24.8893 28.4225 24.8893 28.0873 24.5542C27.7521 24.219 27.7521 23.6756 28.0873 23.3405Z" fill="#418CFD"/>
</g>
<path opacity="0.7" d="M48.7072 41.5365C48.3721 41.2014 47.8287 41.2014 47.4935 41.5365C47.1584 41.8717 47.1584 42.4151 47.4935 42.7502C47.8287 43.0854 48.3721 43.0854 48.7072 42.7502C49.0424 42.4151 49.0424 41.8717 48.7072 41.5365Z" fill="#418CFD"/>
<path opacity="0.2" d="M44.4545 33.2865C44.7896 32.9514 45.333 32.9514 45.6682 33.2865C46.0033 33.6217 46.0033 34.1651 45.6682 34.5002C45.333 34.8354 44.7896 34.8354 44.4545 34.5002C44.1193 34.1651 44.1193 33.6217 44.4545 33.2865Z" fill="#418CFD"/>
<path opacity="0.5" d="M23.4177 42.2188L26.1209 34.1092L26.1209 34.1092C27.3466 30.4323 27.9594 28.5939 29.4094 28.2516C30.8594 27.9093 32.2297 29.2796 34.9703 32.0202L34.9703 32.0202L40.3767 37.4266C43.1172 40.1671 44.4875 41.5374 44.1452 42.9874C43.8029 44.4375 41.9645 45.0503 38.2876 46.2759L38.2876 46.2759L30.178 48.9791L30.178 48.9791C25.7534 50.454 23.541 51.1914 22.3732 50.0236C21.2054 48.8558 21.9429 46.6435 23.4177 42.2188Z" fill="#418CFD"/>
<path d="M31.0833 29.0067L31.1643 28.6147C30.5353 28.2457 29.9807 28.1178 29.414 28.2516C29.1829 28.3062 28.973 28.3987 28.7786 28.5307L29.8929 28.7609C29.1272 28.6027 28.8671 28.5489 28.7786 28.5307C28.76 28.5433 28.7414 28.5564 28.723 28.5698L28.7145 28.6117C28.703 28.6692 28.6863 28.7531 28.6653 28.8612C28.6233 29.0771 28.5639 29.3895 28.4938 29.7785C28.3536 30.5562 28.1701 31.6429 27.9964 32.8811C27.6522 35.3343 27.3333 38.4686 27.4976 40.9733C27.597 42.4889 27.9123 44.369 28.1937 45.8381C28.3357 46.5795 28.4717 47.2293 28.5722 47.694C28.6225 47.9266 28.664 48.1131 28.693 48.2421L28.7268 48.3911L28.7359 48.4306L28.739 48.444C28.739 48.444 28.7393 48.4452 29.9081 48.1733L28.739 48.444L28.9582 49.3858C29.3463 49.2579 29.7541 49.1219 30.1826 48.9791L31.2452 48.6249L31.0744 47.8905L31.0662 47.8551L31.0344 47.7148C31.0067 47.5918 30.9666 47.4119 30.9179 47.1867C30.8205 46.736 30.6885 46.1053 30.5508 45.3866C30.2728 43.9353 29.9816 42.1761 29.8924 40.8163C29.7452 38.5702 30.0329 35.6392 30.3731 33.2146C30.5416 32.014 30.7197 30.9588 30.8557 30.2042C30.9237 29.8272 30.981 29.5258 31.0211 29.3196C31.0411 29.2166 31.0569 29.1373 31.0675 29.0844L31.0796 29.025L31.0825 29.0106L31.0833 29.0067Z" fill="#418CFD"/>
<path d="M37.8659 46.418L35.5891 47.1769L35.4413 46.7321L36.58 46.3537C35.4413 46.7321 35.4413 46.7323 35.4413 46.7321L35.4398 46.7277L35.4366 46.718L35.4252 46.6832C35.4155 46.6533 35.4016 46.6102 35.3841 46.5551C35.3492 46.445 35.2998 46.2866 35.2409 46.0898C35.1232 45.6966 34.9663 45.1466 34.8092 44.5175C34.5019 43.2868 34.1669 41.6511 34.1669 40.2883C34.1669 38.9254 34.5019 37.2897 34.8092 36.059C34.9663 35.4299 35.1232 34.8799 35.2409 34.4868C35.2998 34.2899 35.3492 34.1316 35.3841 34.0214C35.4016 33.9663 35.4155 33.9232 35.4252 33.8933L35.4366 33.8585L35.4398 33.8488L35.4408 33.8459C35.4408 33.8458 35.4413 33.8444 36.58 34.2229L35.4413 33.8444L35.78 32.8253L37.679 34.7243C37.6767 34.7317 37.6742 34.7394 37.6717 34.7474C37.6403 34.8463 37.5949 34.992 37.5401 35.175C37.4303 35.5417 37.2839 36.0551 37.1377 36.6405C36.8385 37.8386 36.5669 39.2356 36.5669 40.2883C36.5669 41.341 36.8385 42.738 37.1377 43.9361C37.2839 44.5214 37.4303 45.0348 37.5401 45.4015C37.5949 45.5845 37.6403 45.7302 37.6717 45.8291C37.6874 45.8785 37.6995 45.9162 37.7076 45.941L37.7165 45.9682L37.7185 45.9743L37.8659 46.418Z" fill="#418CFD"/>
</g>
<defs>
<linearGradient id="paint0_linear_512_443" x1="36.7347" y1="-57.3061" x2="36.7347" y2="152.082" gradientUnits="userSpaceOnUse">
<stop stop-color="#B1D0FE"/>
<stop offset="1" stop-color="#B1D0FE" stop-opacity="0"/>
</linearGradient>
<clipPath id="clip0_512_443">
<rect width="72" height="72" fill="white"/>
</clipPath>
</defs>
</svg>
