<svg width="72" height="72" viewBox="0 0 72 72" fill="none" xmlns="http://www.w3.org/2000/svg">
<g clip-path="url(#clip0_512_436)">
<circle cx="36" cy="36" r="36" fill="url(#paint0_linear_512_436)"/>
<path fill-rule="evenodd" clip-rule="evenodd" d="M23.1953 24.311V46.711C23.1953 49.362 25.3443 51.511 27.9953 51.511H43.9953C46.6463 51.511 48.7953 49.362 48.7953 46.711V30.711C48.7953 28.0601 46.6463 25.911 43.9953 25.911H24.7953C23.9117 25.911 23.1953 25.1947 23.1953 24.311ZM28.3953 35.511C28.3953 34.8483 28.9326 34.311 29.5953 34.311H42.3953C43.0581 34.311 43.5953 34.8483 43.5953 35.511C43.5953 36.1738 43.0581 36.711 42.3953 36.711H29.5953C28.9326 36.711 28.3953 36.1738 28.3953 35.511ZM28.3953 41.111C28.3953 40.4483 28.9326 39.911 29.5953 39.911H38.3953C39.0581 39.911 39.5953 40.4483 39.5953 41.111C39.5953 41.7738 39.0581 42.311 38.3953 42.311H29.5953C28.9326 42.311 28.3953 41.7738 28.3953 41.111Z" fill="#418CFD"/>
<path opacity="0.5" d="M45.5953 23.2006V26.1841C45.0949 26.0072 44.5563 25.9109 43.9953 25.9109H24.7953C23.9117 25.9109 23.1953 25.1946 23.1953 24.3109V24.1973C23.1953 23.3444 23.8224 22.6214 24.6667 22.5008L41.9428 20.0328C43.8706 19.7574 45.5953 21.2532 45.5953 23.2006Z" fill="#5196FD"/>
</g>
<defs>
<linearGradient id="paint0_linear_512_436" x1="36.7347" y1="-57.3061" x2="36.7347" y2="152.082" gradientUnits="userSpaceOnUse">
<stop stop-color="#B1D0FE"/>
<stop offset="1" stop-color="#B1D0FE" stop-opacity="0"/>
</linearGradient>
<clipPath id="clip0_512_436">
<rect width="72" height="72" fill="white"/>
</clipPath>
</defs>
</svg>
