<svg width="72" height="72" viewBox="0 0 72 72" fill="none" xmlns="http://www.w3.org/2000/svg">
<g clip-path="url(#clip0_512_454)">
<circle cx="36" cy="36" r="36" fill="url(#paint0_linear_512_454)"/>
<path opacity="0.5" d="M52.2031 47.7292V36.2C52.2031 27.3634 45.0397 20.2 36.2031 20.2C27.3666 20.2 20.2031 27.3634 20.2031 36.2V47.7292C20.2031 49.7832 22.3647 51.1192 24.2018 50.2006C25.6867 49.4581 27.4556 49.5683 28.8369 50.4892C30.3909 51.5251 32.4154 51.5251 33.9693 50.4892L34.5336 50.113C35.5446 49.439 36.8617 49.439 37.8727 50.113L38.4369 50.4892C39.9909 51.5251 42.0154 51.5251 43.5693 50.4892C44.9506 49.5683 46.7195 49.4581 48.2044 50.2006C50.0416 51.1192 52.2031 49.7832 52.2031 47.7292Z" fill="#418CFD"/>
<path d="M40.9969 36.1999C41.8805 36.1999 42.5969 35.1254 42.5969 33.7999C42.5969 32.4744 41.8805 31.3999 40.9969 31.3999C40.1132 31.3999 39.3969 32.4744 39.3969 33.7999C39.3969 35.1254 40.1132 36.1999 40.9969 36.1999Z" fill="#418CFD"/>
<path d="M32.9969 33.7999C32.9969 35.1254 32.2805 36.1999 31.3969 36.1999C30.5132 36.1999 29.7969 35.1254 29.7969 33.7999C29.7969 32.4744 30.5132 31.3999 31.3969 31.3999C32.2805 31.3999 32.9969 32.4744 32.9969 33.7999Z" fill="#418CFD"/>
</g>
<defs>
<linearGradient id="paint0_linear_512_454" x1="36.7347" y1="-57.3061" x2="36.7347" y2="152.082" gradientUnits="userSpaceOnUse">
<stop stop-color="#B1D0FE"/>
<stop offset="1" stop-color="#B1D0FE" stop-opacity="0"/>
</linearGradient>
<clipPath id="clip0_512_454">
<rect width="72" height="72" fill="white"/>
</clipPath>
</defs>
</svg>
