<svg width="48" height="48" viewBox="0 0 48 48" fill="none" xmlns="http://www.w3.org/2000/svg">
<g clip-path="url(#clip0_670_2499)">
<circle cx="24" cy="24" r="24" fill="url(#paint0_linear_670_2499)"/>
<path opacity="0.5" d="M33.5526 30.8136V23.7549C33.5526 18.3449 29.1669 13.9591 23.7568 13.9591C18.3467 13.9591 13.9609 18.3449 13.9609 23.7549V30.8136C13.9609 32.0712 15.2843 32.8891 16.4091 32.3267C17.3182 31.8721 18.4012 31.9396 19.2469 32.5034C20.1983 33.1376 21.4377 33.1376 22.3891 32.5034L22.7346 32.2731C23.3536 31.8604 24.16 31.8604 24.7789 32.2731L25.1244 32.5034C26.0758 33.1376 27.3152 33.1376 28.2666 32.5034C29.1123 31.9396 30.1953 31.8721 31.1044 32.3267C32.2292 32.8891 33.5526 32.0712 33.5526 30.8136Z" fill="#5A9992"/>
<path d="M26.693 23.755C27.234 23.755 27.6726 23.0972 27.6726 22.2857C27.6726 21.4741 27.234 20.8163 26.693 20.8163C26.152 20.8163 25.7134 21.4741 25.7134 22.2857C25.7134 23.0972 26.152 23.755 26.693 23.755Z" fill="#5A9992"/>
<path d="M21.7951 22.2857C21.7951 23.0972 21.3565 23.755 20.8155 23.755C20.2745 23.755 19.8359 23.0972 19.8359 22.2857C19.8359 21.4741 20.2745 20.8163 20.8155 20.8163C21.3565 20.8163 21.7951 21.4741 21.7951 22.2857Z" fill="#5A9992"/>
</g>
<defs>
<linearGradient id="paint0_linear_670_2499" x1="24.4898" y1="-38.2041" x2="24.4898" y2="101.388" gradientUnits="userSpaceOnUse">
<stop stop-color="#CBF0EC"/>
<stop offset="1" stop-color="#CBF0EC" stop-opacity="0"/>
</linearGradient>
<clipPath id="clip0_670_2499">
<rect width="48" height="48" fill="white"/>
</clipPath>
</defs>
</svg>
