<svg width="48" height="48" viewBox="0 0 48 48" fill="none" xmlns="http://www.w3.org/2000/svg">
<g clip-path="url(#clip0_670_2311)">
<circle cx="24" cy="24" r="24" fill="url(#paint0_linear_670_2311)"/>
<path d="M30.1078 28.4251C29.4845 28.5741 28.8339 28.653 28.1649 28.653C23.5663 28.653 19.8384 24.9251 19.8384 20.3265C19.8384 19.8529 19.878 19.3885 19.9539 18.9365C19.9185 18.9706 19.8819 19.002 19.8433 19.0313C19.5684 19.24 19.2261 19.3174 18.5414 19.4724L17.918 19.6134C15.5085 20.1586 14.3038 20.4311 14.0172 21.3528C13.7306 22.2745 14.5519 23.235 16.1945 25.1558L16.6194 25.6527C17.0862 26.1986 17.3196 26.4715 17.4246 26.8091C17.5296 27.1467 17.4943 27.5109 17.4237 28.2391L17.3595 28.9022C17.1112 31.465 16.987 32.7463 17.7374 33.316C18.4878 33.8856 19.6157 33.3663 21.8717 32.3276L22.4554 32.0588C23.0965 31.7636 23.417 31.6161 23.7568 31.6161C24.0965 31.6161 24.4171 31.7636 25.0582 32.0588L25.6418 32.3275C27.8978 33.3663 29.0258 33.8856 29.7762 33.316C30.5266 32.7463 30.4024 31.465 30.154 28.9022L30.1078 28.4251Z" fill="#ED639E"/>
<path opacity="0.5" d="M20.9679 17.2979L20.6469 17.8738C20.2943 18.5063 20.118 18.8225 19.8431 19.0312C19.8817 19.0019 19.9183 18.9705 19.9538 18.9364C19.8778 19.3884 19.8383 19.8528 19.8383 20.3264C19.8383 24.925 23.5662 28.6529 28.1648 28.6529C28.8338 28.6529 29.4843 28.574 30.1077 28.425L30.0897 28.239C30.0191 27.5108 29.9838 27.1466 30.0888 26.809C30.1938 26.4714 30.4272 26.1984 30.894 25.6526L31.3189 25.1557C32.9615 23.2349 33.7828 22.2744 33.4962 21.3527C33.2096 20.431 32.0049 20.1585 29.5954 19.6133L28.972 19.4722C28.2874 19.3173 27.945 19.2399 27.6701 19.0312C27.3952 18.8225 27.2189 18.5063 26.8664 17.8738L26.5453 17.2979C25.3046 15.072 24.6842 13.9591 23.7566 13.9591C22.8291 13.9591 22.2087 15.072 20.9679 17.2979Z" fill="#ED639E"/>
</g>
<defs>
<linearGradient id="paint0_linear_670_2311" x1="24.4898" y1="-38.2041" x2="24.4898" y2="101.388" gradientUnits="userSpaceOnUse">
<stop stop-color="#F8BFD7"/>
<stop offset="1" stop-color="#F8BFD7" stop-opacity="0"/>
</linearGradient>
<clipPath id="clip0_670_2311">
<rect width="48" height="48" fill="white"/>
</clipPath>
</defs>
</svg>
