<svg width="48" height="48" viewBox="0 0 48 48" fill="none" xmlns="http://www.w3.org/2000/svg">
<g clip-path="url(#clip0_670_2809)">
<circle cx="24" cy="24" r="24" fill="url(#paint0_linear_670_2809)"/>
<path opacity="0.5" d="M33.5508 30.8137V23.755C33.5508 18.3449 29.165 13.9592 23.7549 13.9592C18.3449 13.9592 13.9591 18.3449 13.9591 23.755V30.8137C13.9591 32.0712 15.2825 32.8891 16.4073 32.3267C17.3164 31.8722 18.3994 31.9396 19.2451 32.5034C20.1965 33.1377 21.4359 33.1377 22.3873 32.5034L22.7328 32.2731C23.3517 31.8605 24.1581 31.8605 24.7771 32.2731L25.1226 32.5034C26.074 33.1377 27.3134 33.1377 28.2648 32.5034C29.1105 31.9396 30.1935 31.8722 31.1026 32.3267C32.2274 32.8891 33.5508 32.0712 33.5508 30.8137Z" fill="#41549A"/>
<path d="M26.6938 23.755C27.2348 23.755 27.6733 23.0971 27.6733 22.2856C27.6733 21.4741 27.2348 20.8162 26.6938 20.8162C26.1527 20.8162 25.7142 21.4741 25.7142 22.2856C25.7142 23.0971 26.1527 23.755 26.6938 23.755Z" fill="#41549A"/>
<path d="M21.7958 22.2856C21.7958 23.0971 21.3573 23.755 20.8163 23.755C20.2752 23.755 19.8367 23.0971 19.8367 22.2856C19.8367 21.4741 20.2752 20.8162 20.8163 20.8162C21.3573 20.8162 21.7958 21.4741 21.7958 22.2856Z" fill="#41549A"/>
</g>
<defs>
<linearGradient id="paint0_linear_670_2809" x1="24.4898" y1="-38.2041" x2="24.4898" y2="101.388" gradientUnits="userSpaceOnUse">
<stop stop-color="#B1B9D6"/>
<stop offset="1" stop-color="#B1B9D6" stop-opacity="0"/>
</linearGradient>
<clipPath id="clip0_670_2809">
<rect width="48" height="48" fill="white"/>
</clipPath>
</defs>
</svg>
