<svg width="48" height="48" viewBox="0 0 48 48" fill="none" xmlns="http://www.w3.org/2000/svg">
<g clip-path="url(#clip0_670_2430)">
<circle cx="24" cy="24" r="24" fill="url(#paint0_linear_670_2430)"/>
<path d="M22.7022 14.312C23.0484 14.5236 23.1574 14.9758 22.9458 15.322C22.7922 15.5733 22.8307 15.897 23.0389 16.1052L23.1348 16.201C23.7114 16.7777 23.9241 17.6248 23.6881 18.4054C23.5707 18.7938 23.1607 19.0135 22.7723 18.8961C22.3839 18.7787 22.1642 18.3687 22.2816 17.9803C22.3608 17.7181 22.2894 17.4337 22.0958 17.2401L21.9999 17.1442C21.3117 16.456 21.1845 15.386 21.6921 14.5556C21.9038 14.2094 22.356 14.1004 22.7022 14.312Z" fill="#FFB627"/>
<path d="M31.5657 18.9029C31.4301 18.9552 31.3099 19.0753 31.0696 19.3157C30.8292 19.5561 30.709 19.6763 30.6568 19.8119C30.5956 19.9706 30.5956 20.1463 30.6568 20.305C30.709 20.4405 30.8292 20.5607 31.0696 20.8011C31.3099 21.0415 31.4301 21.1617 31.5657 21.2139C31.7244 21.2751 31.9001 21.2751 32.0588 21.2139C32.1944 21.1617 32.3146 21.0415 32.555 20.8011C32.7953 20.5607 32.9155 20.4405 32.9678 20.305C33.0289 20.1463 33.0289 19.9706 32.9678 19.8119C32.9155 19.6763 32.7953 19.5561 32.555 19.3157C32.3146 19.0753 32.1944 18.9552 32.0588 18.9029C31.9001 18.8418 31.7244 18.8418 31.5657 18.9029Z" fill="#FFB627"/>
<path d="M32.9699 24.3032C32.6156 24.1482 32.2035 24.2133 31.9142 24.4699C31.1214 25.1728 29.9678 25.2897 29.0503 24.7599L28.8418 24.6395C28.4904 24.4367 28.37 23.9873 28.5729 23.6359C28.7757 23.2845 29.2251 23.1641 29.5765 23.367L29.785 23.4874C30.1548 23.7009 30.6198 23.6538 30.9393 23.3705C31.6572 22.7339 32.6795 22.5725 33.5586 22.9569L33.8441 23.0817C34.2159 23.2443 34.3855 23.6774 34.2229 24.0492C34.0604 24.421 33.6272 24.5906 33.2554 24.428L32.9699 24.3032Z" fill="#FFB627"/>
<path opacity="0.7" d="M25.2841 16.3067C25.4811 16.1097 25.5795 16.0113 25.6934 15.9752C25.7897 15.9446 25.8931 15.9446 25.9894 15.9752C26.1033 16.0113 26.2018 16.1097 26.3987 16.3067C26.5957 16.5036 26.6941 16.6021 26.7302 16.716C26.7608 16.8123 26.7608 16.9157 26.7302 17.012C26.6941 17.1259 26.5957 17.2243 26.3987 17.4213C26.2018 17.6182 26.1033 17.7167 25.9894 17.7528C25.8931 17.7833 25.7897 17.7833 25.6934 17.7528C25.5795 17.7167 25.4811 17.6182 25.2841 17.4213C25.0872 17.2243 24.9887 17.1259 24.9526 17.012C24.9221 16.9157 24.9221 16.8123 24.9526 16.716C24.9887 16.6021 25.0872 16.5036 25.2841 16.3067Z" fill="#FFB627"/>
<path opacity="0.7" d="M30.6695 27.0007C30.8747 26.7955 31.2074 26.7955 31.4126 27.0007C31.6178 27.2059 31.6178 27.5386 31.4126 27.7438C31.2074 27.949 30.8747 27.949 30.6695 27.7438C30.4643 27.5386 30.4643 27.2059 30.6695 27.0007Z" fill="#FFB627"/>
<g opacity="0.5">
<path d="M18.7867 15.8603C18.9919 15.6551 19.3246 15.6551 19.5298 15.8603C19.735 16.0655 19.735 16.3982 19.5298 16.6034C19.3246 16.8086 18.9919 16.8086 18.7867 16.6034C18.5815 16.3982 18.5815 16.0655 18.7867 15.8603Z" fill="#FFC24C"/>
<path d="M29.3291 16.6252C29.7269 16.7048 29.985 17.0918 29.9054 17.4897L29.7644 18.195C29.5702 19.1655 28.8709 19.9577 27.9319 20.2707C27.4931 20.417 27.1664 20.7871 27.0757 21.2406L26.9346 21.9459C26.855 22.3438 26.468 22.6018 26.0701 22.5222C25.6722 22.4426 25.4142 22.0556 25.4938 21.6577L25.6348 20.9525C25.8289 19.9819 26.5282 19.1897 27.4673 18.8767C27.906 18.7305 28.2328 18.3603 28.3235 17.9068L28.4646 17.2015C28.5441 16.8037 28.9312 16.5456 29.3291 16.6252Z" fill="#FFC24C"/>
</g>
<path opacity="0.2" d="M29.1422 21.5427C29.3474 21.3375 29.68 21.3375 29.8852 21.5427C30.0904 21.7479 30.0904 22.0806 29.8852 22.2858C29.68 22.4909 29.3474 22.4909 29.1422 22.2858C28.937 22.0806 28.937 21.7479 29.1422 21.5427Z" fill="#FFB627"/>
<path opacity="0.5" d="M15.9299 27.4399L17.5849 22.4749C18.3352 20.2238 18.7104 19.0983 19.5982 18.8887C20.4859 18.6791 21.3249 19.5181 23.0028 21.1959L26.3128 24.506C27.9907 26.1838 28.8296 27.0228 28.62 27.9105C28.4105 28.7983 27.2849 29.1735 25.0338 29.9239L20.0688 31.5789L20.0688 31.5789C17.3598 32.4818 16.0053 32.9333 15.2904 32.2184C14.5754 31.5034 15.0269 30.1489 15.9299 27.4399Z" fill="#FFC24C"/>
<path d="M20.621 19.351L20.6706 19.111C20.2855 18.885 19.9459 18.8068 19.599 18.8887C19.4575 18.9221 19.329 18.9788 19.2099 19.0595L19.8922 19.2005C19.4234 19.1036 19.2641 19.0707 19.2099 19.0595C19.1986 19.0673 19.1871 19.0753 19.1759 19.0835L19.1707 19.1092C19.1637 19.1443 19.1534 19.1957 19.1406 19.2619C19.1148 19.3941 19.0785 19.5853 19.0356 19.8235C18.9498 20.2996 18.8374 20.965 18.731 21.723C18.5203 23.225 18.3251 25.144 18.4257 26.6774C18.4865 27.6053 18.6796 28.7564 18.8518 29.6558C18.9388 30.1098 19.022 30.5076 19.0836 30.7921C19.1144 30.9345 19.1398 31.0487 19.1576 31.1277L19.1783 31.2189L19.1838 31.243L19.1857 31.2512C19.1857 31.2513 19.1859 31.252 19.9015 31.0855L19.1857 31.2512L19.3199 31.8279C19.5575 31.7495 19.8072 31.6663 20.0695 31.5789L20.7201 31.362L20.6155 30.9124L20.6105 30.8907L20.591 30.8048C20.5741 30.7295 20.5496 30.6194 20.5197 30.4815C20.4601 30.2056 20.3793 29.8194 20.295 29.3794C20.1248 28.4908 19.9465 27.4138 19.8919 26.5813C19.8017 25.2061 19.9779 23.4116 20.1862 21.9272C20.2893 21.1922 20.3984 20.5461 20.4816 20.0841C20.5232 19.8533 20.5583 19.6688 20.5829 19.5426C20.5952 19.4795 20.6048 19.431 20.6113 19.3985L20.6187 19.3622L20.6205 19.3534L20.621 19.351Z" fill="#FFB627"/>
<path d="M24.7736 30.0108L23.3796 30.4755L23.2891 30.2032L23.9863 29.9715C23.2891 30.2032 23.2891 30.2033 23.2891 30.2032L23.2882 30.2005L23.2862 30.1945L23.2793 30.1732C23.2733 30.1549 23.2648 30.1285 23.2541 30.0948C23.2327 30.0274 23.2025 29.9304 23.1664 29.8099C23.0944 29.5692 22.9983 29.2325 22.9021 28.8473C22.714 28.0938 22.5089 27.0924 22.5089 26.258C22.5089 25.4236 22.714 24.4221 22.9021 23.6687C22.9983 23.2835 23.0944 22.9468 23.1664 22.7061C23.2025 22.5856 23.2327 22.4886 23.2541 22.4212C23.2648 22.3875 23.2733 22.3611 23.2793 22.3428L23.2862 22.3215L23.2882 22.3155L23.2888 22.3138C23.2888 22.3137 23.2891 22.3128 23.9863 22.5445L23.2891 22.3128L23.4965 21.6889L24.6591 22.8515C24.6577 22.8561 24.6562 22.8608 24.6546 22.8657C24.6354 22.9262 24.6076 23.0154 24.5741 23.1275C24.5069 23.3519 24.4172 23.6663 24.3277 24.0247C24.1446 24.7582 23.9783 25.6135 23.9783 26.258C23.9783 26.9025 24.1446 27.7578 24.3277 28.4913C24.4172 28.8497 24.5069 29.164 24.5741 29.3885C24.6076 29.5006 24.6354 29.5898 24.6546 29.6503C24.6642 29.6806 24.6717 29.7037 24.6766 29.7188L24.6821 29.7355L24.6833 29.7392L24.7736 30.0108Z" fill="#FFB627"/>
</g>
<defs>
<linearGradient id="paint0_linear_670_2430" x1="24.4898" y1="-38.2041" x2="24.4898" y2="101.388" gradientUnits="userSpaceOnUse">
<stop stop-color="#FFE1A6"/>
<stop offset="1" stop-color="#FFE1A6" stop-opacity="0"/>
</linearGradient>
<clipPath id="clip0_670_2430">
<rect width="48" height="48" fill="white"/>
</clipPath>
</defs>
</svg>
