<svg width="25" height="24" fill="none" xmlns="http://www.w3.org/2000/svg"><g clip-path="url(#a)"><circle cx="12.5" cy="12" r="11.667" fill="red"/><path fill-rule="evenodd" clip-rule="evenodd" d="M19.092 7.554c.233.233.4.522.487.84.495 1.993.38 5.142.01 7.212a1.884 1.884 0 0 1-1.328 1.327c-1.163.317-5.846.317-5.846.317s-4.683 0-5.846-.317a1.885 1.885 0 0 1-1.327-1.327c-.498-1.985-.361-5.135-.01-7.202A1.885 1.885 0 0 1 6.56 7.077c1.164-.317 5.846-.327 5.846-.327s4.683 0 5.847.317c.318.086.607.254.84.487ZM14.8 12l-3.885 2.25v-4.5L14.8 12Z" fill="#fff"/></g><defs><clipPath id="a"><path fill="#fff" transform="translate(.5)" d="M0 0h24v24H0z"/></clipPath></defs></svg>